<?xml version="1.0" encoding="UTF-8"?>
<!DOCTYPE svg PUBLIC "-//W3C//DTD SVG 1.1//EN" "http://www.w3.org/Graphics/SVG/1.1/DTD/svg11.dtd">
<!-- Creator: CorelDRAW 2020 (64-Bit) -->
<svg xmlns="http://www.w3.org/2000/svg" xml:space="preserve" width="77.9168mm" height="32.2977mm" version="1.1" style="shape-rendering:geometricPrecision; text-rendering:geometricPrecision; image-rendering:optimizeQuality; fill-rule:evenodd; clip-rule:evenodd"
viewBox="0 0 3551.46 1472.14"
 xmlns:xlink="http://www.w3.org/1999/xlink"
 xmlns:xodm="http://www.corel.com/coreldraw/odm/2003">
 <defs>
  <style type="text/css">
   <![CDATA[
    .str0 {stroke:#9A703E;stroke-width:3.47;stroke-linecap:round;stroke-linejoin:round;stroke-miterlimit:22.9256}
    .str55 {stroke:#FEFEFE;stroke-width:5.14;stroke-miterlimit:22.9256}
    .str131 {stroke:#FEFEFE;stroke-width:5.14;stroke-miterlimit:22.9256}
    .str74 {stroke:#FEFEFE;stroke-width:5.14;stroke-miterlimit:22.9256}
    .str17 {stroke:#FEFEFE;stroke-width:5.14;stroke-miterlimit:22.9256}
    .str93 {stroke:#FEFEFE;stroke-width:5.14;stroke-miterlimit:22.9256}
    .str112 {stroke:#FEFEFE;stroke-width:5.14;stroke-miterlimit:22.9256}
    .str36 {stroke:#FEFEFE;stroke-width:5.14;stroke-miterlimit:22.9256}
    .str51 {stroke:#FEFEFE;stroke-width:5.14;stroke-miterlimit:22.9256}
    .str39 {stroke:#FEFEFE;stroke-width:5.14;stroke-miterlimit:22.9256}
    .str52 {stroke:#FEFEFE;stroke-width:5.14;stroke-miterlimit:22.9256}
    .str41 {stroke:#FEFEFE;stroke-width:5.14;stroke-miterlimit:22.9256}
    .str47 {stroke:#FEFEFE;stroke-width:5.14;stroke-miterlimit:22.9256}
    .str56 {stroke:#FEFEFE;stroke-width:5.14;stroke-miterlimit:22.9256}
    .str44 {stroke:#FEFEFE;stroke-width:5.14;stroke-miterlimit:22.9256}
    .str54 {stroke:#FEFEFE;stroke-width:5.14;stroke-miterlimit:22.9256}
    .str40 {stroke:#FEFEFE;stroke-width:5.14;stroke-miterlimit:22.9256}
    .str42 {stroke:#FEFEFE;stroke-width:5.14;stroke-miterlimit:22.9256}
    .str43 {stroke:#FEFEFE;stroke-width:5.14;stroke-miterlimit:22.9256}
    .str46 {stroke:#FEFEFE;stroke-width:5.14;stroke-miterlimit:22.9256}
    .str48 {stroke:#FEFEFE;stroke-width:5.14;stroke-miterlimit:22.9256}
    .str49 {stroke:#FEFEFE;stroke-width:5.14;stroke-miterlimit:22.9256}
    .str45 {stroke:#FEFEFE;stroke-width:5.14;stroke-miterlimit:22.9256}
    .str50 {stroke:#FEFEFE;stroke-width:5.14;stroke-miterlimit:22.9256}
    .str57 {stroke:#FEFEFE;stroke-width:5.14;stroke-miterlimit:22.9256}
    .str53 {stroke:#FEFEFE;stroke-width:5.14;stroke-miterlimit:22.9256}
    .str120 {stroke:#FEFEFE;stroke-width:5.14;stroke-miterlimit:22.9256}
    .str122 {stroke:#FEFEFE;stroke-width:5.14;stroke-miterlimit:22.9256}
    .str123 {stroke:#FEFEFE;stroke-width:5.14;stroke-miterlimit:22.9256}
    .str129 {stroke:#FEFEFE;stroke-width:5.14;stroke-miterlimit:22.9256}
    .str125 {stroke:#FEFEFE;stroke-width:5.14;stroke-miterlimit:22.9256}
    .str118 {stroke:#FEFEFE;stroke-width:5.14;stroke-miterlimit:22.9256}
    .str115 {stroke:#FEFEFE;stroke-width:5.14;stroke-miterlimit:22.9256}
    .str133 {stroke:#FEFEFE;stroke-width:5.14;stroke-miterlimit:22.9256}
    .str117 {stroke:#FEFEFE;stroke-width:5.14;stroke-miterlimit:22.9256}
    .str121 {stroke:#FEFEFE;stroke-width:5.14;stroke-miterlimit:22.9256}
    .str132 {stroke:#FEFEFE;stroke-width:5.14;stroke-miterlimit:22.9256}
    .str130 {stroke:#FEFEFE;stroke-width:5.14;stroke-miterlimit:22.9256}
    .str126 {stroke:#FEFEFE;stroke-width:5.14;stroke-miterlimit:22.9256}
    .str127 {stroke:#FEFEFE;stroke-width:5.14;stroke-miterlimit:22.9256}
    .str124 {stroke:#FEFEFE;stroke-width:5.14;stroke-miterlimit:22.9256}
    .str128 {stroke:#FEFEFE;stroke-width:5.14;stroke-miterlimit:22.9256}
    .str116 {stroke:#FEFEFE;stroke-width:5.14;stroke-miterlimit:22.9256}
    .str119 {stroke:#FEFEFE;stroke-width:5.14;stroke-miterlimit:22.9256}
    .str61 {stroke:#FEFEFE;stroke-width:5.14;stroke-miterlimit:22.9256}
    .str65 {stroke:#FEFEFE;stroke-width:5.14;stroke-miterlimit:22.9256}
    .str69 {stroke:#FEFEFE;stroke-width:5.14;stroke-miterlimit:22.9256}
    .str59 {stroke:#FEFEFE;stroke-width:5.14;stroke-miterlimit:22.9256}
    .str58 {stroke:#FEFEFE;stroke-width:5.14;stroke-miterlimit:22.9256}
    .str71 {stroke:#FEFEFE;stroke-width:5.14;stroke-miterlimit:22.9256}
    .str66 {stroke:#FEFEFE;stroke-width:5.14;stroke-miterlimit:22.9256}
    .str67 {stroke:#FEFEFE;stroke-width:5.14;stroke-miterlimit:22.9256}
    .str70 {stroke:#FEFEFE;stroke-width:5.14;stroke-miterlimit:22.9256}
    .str76 {stroke:#FEFEFE;stroke-width:5.14;stroke-miterlimit:22.9256}
    .str62 {stroke:#FEFEFE;stroke-width:5.14;stroke-miterlimit:22.9256}
    .str75 {stroke:#FEFEFE;stroke-width:5.14;stroke-miterlimit:22.9256}
    .str64 {stroke:#FEFEFE;stroke-width:5.14;stroke-miterlimit:22.9256}
    .str63 {stroke:#FEFEFE;stroke-width:5.14;stroke-miterlimit:22.9256}
    .str72 {stroke:#FEFEFE;stroke-width:5.14;stroke-miterlimit:22.9256}
    .str68 {stroke:#FEFEFE;stroke-width:5.14;stroke-miterlimit:22.9256}
    .str60 {stroke:#FEFEFE;stroke-width:5.14;stroke-miterlimit:22.9256}
    .str73 {stroke:#FEFEFE;stroke-width:5.14;stroke-miterlimit:22.9256}
    .str3 {stroke:#FEFEFE;stroke-width:5.14;stroke-miterlimit:22.9256}
    .str10 {stroke:#FEFEFE;stroke-width:5.14;stroke-miterlimit:22.9256}
    .str11 {stroke:#FEFEFE;stroke-width:5.14;stroke-miterlimit:22.9256}
    .str12 {stroke:#FEFEFE;stroke-width:5.14;stroke-miterlimit:22.9256}
    .str13 {stroke:#FEFEFE;stroke-width:5.14;stroke-miterlimit:22.9256}
    .str4 {stroke:#FEFEFE;stroke-width:5.14;stroke-miterlimit:22.9256}
    .str7 {stroke:#FEFEFE;stroke-width:5.14;stroke-miterlimit:22.9256}
    .str2 {stroke:#FEFEFE;stroke-width:5.14;stroke-miterlimit:22.9256}
    .str8 {stroke:#FEFEFE;stroke-width:5.14;stroke-miterlimit:22.9256}
    .str1 {stroke:#FEFEFE;stroke-width:5.14;stroke-miterlimit:22.9256}
    .str6 {stroke:#FEFEFE;stroke-width:5.14;stroke-miterlimit:22.9256}
    .str5 {stroke:#FEFEFE;stroke-width:5.14;stroke-miterlimit:22.9256}
    .str19 {stroke:#FEFEFE;stroke-width:5.14;stroke-miterlimit:22.9256}
    .str14 {stroke:#FEFEFE;stroke-width:5.14;stroke-miterlimit:22.9256}
    .str15 {stroke:#FEFEFE;stroke-width:5.14;stroke-miterlimit:22.9256}
    .str18 {stroke:#FEFEFE;stroke-width:5.14;stroke-miterlimit:22.9256}
    .str16 {stroke:#FEFEFE;stroke-width:5.14;stroke-miterlimit:22.9256}
    .str9 {stroke:#FEFEFE;stroke-width:5.14;stroke-miterlimit:22.9256}
    .str77 {stroke:#FEFEFE;stroke-width:5.14;stroke-miterlimit:22.9256}
    .str92 {stroke:#FEFEFE;stroke-width:5.14;stroke-miterlimit:22.9256}
    .str87 {stroke:#FEFEFE;stroke-width:5.14;stroke-miterlimit:22.9256}
    .str91 {stroke:#FEFEFE;stroke-width:5.14;stroke-miterlimit:22.9256}
    .str79 {stroke:#FEFEFE;stroke-width:5.14;stroke-miterlimit:22.9256}
    .str85 {stroke:#FEFEFE;stroke-width:5.14;stroke-miterlimit:22.9256}
    .str82 {stroke:#FEFEFE;stroke-width:5.14;stroke-miterlimit:22.9256}
    .str95 {stroke:#FEFEFE;stroke-width:5.14;stroke-miterlimit:22.9256}
    .str89 {stroke:#FEFEFE;stroke-width:5.14;stroke-miterlimit:22.9256}
    .str90 {stroke:#FEFEFE;stroke-width:5.14;stroke-miterlimit:22.9256}
    .str83 {stroke:#FEFEFE;stroke-width:5.14;stroke-miterlimit:22.9256}
    .str80 {stroke:#FEFEFE;stroke-width:5.14;stroke-miterlimit:22.9256}
    .str94 {stroke:#FEFEFE;stroke-width:5.14;stroke-miterlimit:22.9256}
    .str86 {stroke:#FEFEFE;stroke-width:5.14;stroke-miterlimit:22.9256}
    .str81 {stroke:#FEFEFE;stroke-width:5.14;stroke-miterlimit:22.9256}
    .str78 {stroke:#FEFEFE;stroke-width:5.14;stroke-miterlimit:22.9256}
    .str84 {stroke:#FEFEFE;stroke-width:5.14;stroke-miterlimit:22.9256}
    .str88 {stroke:#FEFEFE;stroke-width:5.14;stroke-miterlimit:22.9256}
    .str99 {stroke:#FEFEFE;stroke-width:5.14;stroke-miterlimit:22.9256}
    .str111 {stroke:#FEFEFE;stroke-width:5.14;stroke-miterlimit:22.9256}
    .str102 {stroke:#FEFEFE;stroke-width:5.14;stroke-miterlimit:22.9256}
    .str98 {stroke:#FEFEFE;stroke-width:5.14;stroke-miterlimit:22.9256}
    .str113 {stroke:#FEFEFE;stroke-width:5.14;stroke-miterlimit:22.9256}
    .str103 {stroke:#FEFEFE;stroke-width:5.14;stroke-miterlimit:22.9256}
    .str100 {stroke:#FEFEFE;stroke-width:5.14;stroke-miterlimit:22.9256}
    .str106 {stroke:#FEFEFE;stroke-width:5.14;stroke-miterlimit:22.9256}
    .str101 {stroke:#FEFEFE;stroke-width:5.14;stroke-miterlimit:22.9256}
    .str109 {stroke:#FEFEFE;stroke-width:5.14;stroke-miterlimit:22.9256}
    .str108 {stroke:#FEFEFE;stroke-width:5.14;stroke-miterlimit:22.9256}
    .str114 {stroke:#FEFEFE;stroke-width:5.14;stroke-miterlimit:22.9256}
    .str104 {stroke:#FEFEFE;stroke-width:5.14;stroke-miterlimit:22.9256}
    .str105 {stroke:#FEFEFE;stroke-width:5.14;stroke-miterlimit:22.9256}
    .str96 {stroke:#FEFEFE;stroke-width:5.14;stroke-miterlimit:22.9256}
    .str110 {stroke:#FEFEFE;stroke-width:5.14;stroke-miterlimit:22.9256}
    .str107 {stroke:#FEFEFE;stroke-width:5.14;stroke-miterlimit:22.9256}
    .str97 {stroke:#FEFEFE;stroke-width:5.14;stroke-miterlimit:22.9256}
    .str25 {stroke:#FEFEFE;stroke-width:5.14;stroke-miterlimit:22.9256}
    .str31 {stroke:#FEFEFE;stroke-width:5.14;stroke-miterlimit:22.9256}
    .str21 {stroke:#FEFEFE;stroke-width:5.14;stroke-miterlimit:22.9256}
    .str28 {stroke:#FEFEFE;stroke-width:5.14;stroke-miterlimit:22.9256}
    .str26 {stroke:#FEFEFE;stroke-width:5.14;stroke-miterlimit:22.9256}
    .str33 {stroke:#FEFEFE;stroke-width:5.14;stroke-miterlimit:22.9256}
    .str37 {stroke:#FEFEFE;stroke-width:5.14;stroke-miterlimit:22.9256}
    .str27 {stroke:#FEFEFE;stroke-width:5.14;stroke-miterlimit:22.9256}
    .str35 {stroke:#FEFEFE;stroke-width:5.14;stroke-miterlimit:22.9256}
    .str30 {stroke:#FEFEFE;stroke-width:5.14;stroke-miterlimit:22.9256}
    .str24 {stroke:#FEFEFE;stroke-width:5.14;stroke-miterlimit:22.9256}
    .str32 {stroke:#FEFEFE;stroke-width:5.14;stroke-miterlimit:22.9256}
    .str38 {stroke:#FEFEFE;stroke-width:5.14;stroke-miterlimit:22.9256}
    .str22 {stroke:#FEFEFE;stroke-width:5.14;stroke-miterlimit:22.9256}
    .str29 {stroke:#FEFEFE;stroke-width:5.14;stroke-miterlimit:22.9256}
    .str34 {stroke:#FEFEFE;stroke-width:5.14;stroke-miterlimit:22.9256}
    .str20 {stroke:#FEFEFE;stroke-width:5.14;stroke-miterlimit:22.9256}
    .str23 {stroke:#FEFEFE;stroke-width:5.14;stroke-miterlimit:22.9256}
    .fil13 {fill:none}
    .fil8 {fill:#FEFEFE}
    .fil15 {fill:#042F02}
    .fil12 {fill:#856944}
    .fil14 {fill:#727376;fill-rule:nonzero}
    .fil11 {fill:#9A703E;fill-rule:nonzero}
    .fil10 {fill:url(#id0)}
    .fil9 {fill:url(#id1)}
    .fil0 {fill:url(#id2)}
    .fil7 {fill:url(#id3)}
    .fil3 {fill:url(#id4)}
    .fil1 {fill:url(#id5)}
    .fil5 {fill:url(#id6)}
    .fil2 {fill:url(#id7)}
    .fil6 {fill:url(#id8)}
    .fil4 {fill:url(#id9)}
   ]]>
  </style>
  <linearGradient id="id0" gradientUnits="userSpaceOnUse" x1="543.97" y1="764.28" x2="870.64" y2="787.54">
   <stop offset="0" style="stop-opacity:1; stop-color:#AB8F67"/>
   <stop offset="0.521569" style="stop-opacity:1; stop-color:#735A39"/>
   <stop offset="1" style="stop-opacity:1; stop-color:#AB8F67"/>
  </linearGradient>
  <linearGradient id="id1" gradientUnits="userSpaceOnUse" xlink:href="#id0" x1="382.3" y1="740.28" x2="1046.08" y2="787.53">
  </linearGradient>
  <linearGradient id="id2" gradientUnits="userSpaceOnUse" xlink:href="#id0" x1="706.3" y1="132.04" x2="706.31" y2="1305.71">
  </linearGradient>
  <radialGradient id="id3" gradientUnits="userSpaceOnUse" gradientTransform="matrix(1.04044 -0.0539302 0.0539302 1.04044 -23 -5)" cx="149.36" cy="313.85" r="177.48" fx="149.36" fy="313.85">
   <stop offset="0" style="stop-opacity:1; stop-color:#AB8F67"/>
   <stop offset="1" style="stop-opacity:1; stop-color:#917048"/>
  </radialGradient>
  <radialGradient id="id4" gradientUnits="userSpaceOnUse" gradientTransform="matrix(1.04044 -0.0539302 0.0539302 1.04044 -108 38)" xlink:href="#id3" cx="1410.98" cy="936.04" r="177.48" fx="1410.98" fy="936.04">
  </radialGradient>
  <radialGradient id="id5" gradientUnits="userSpaceOnUse" gradientTransform="matrix(1.04051 -0.0539302 0.0539335 1.04044 -31 37)" xlink:href="#id3" cx="714.7" cy="37.24" r="177.48" fx="714.7" fy="37.24">
  </radialGradient>
  <radialGradient id="id6" gradientUnits="userSpaceOnUse" gradientTransform="matrix(1.04044 -0.0539302 0.0539302 1.04044 -93 -37)" xlink:href="#id3" cx="395.18" cy="1434.9" r="177.48" fx="395.18" fy="1434.9">
  </radialGradient>
  <radialGradient id="id7" gradientUnits="userSpaceOnUse" gradientTransform="matrix(1.04044 -0.0539302 0.0539302 1.04044 -69 56)" xlink:href="#id3" cx="1282.39" cy="320.9" r="177.48" fx="1282.39" fy="320.9">
  </radialGradient>
  <radialGradient id="id8" gradientUnits="userSpaceOnUse" gradientTransform="matrix(1.04044 -0.0539302 0.0539302 1.04044 -52 -36)" xlink:href="#id3" cx="37.24" cy="931.34" r="177.48" fx="37.24" fy="931.34">
  </radialGradient>
  <radialGradient id="id9" gradientUnits="userSpaceOnUse" gradientTransform="matrix(1.04044 -0.0539335 0.0539302 1.04051 -117 -2)" xlink:href="#id3" cx="1015.39" cy="1411.36" r="177.48" fx="1015.39" fy="1411.36">
  </radialGradient>
 </defs>
 <g id="Capa_x0020_1">
  <metadata id="CorelCorpID_0Corel-Layer"/>
  <g id="_2033126315776">
   <path class="fil0" d="M566.47 465.57l-417.11 -151.72 224.54 383.03 -336.66 234.46 405.23 65.28 -47.28 438.28 314.81 -306.22 305.4 282.69 -33.17 -419.45 428.75 -55.87 -362.54 -229.75 233.95 -385.39 -419.46 151.72 -148.23 -435.39 -148.24 428.33zm26.66 58.72l120.89 -349.34 120.9 355.1 342.11 -123.74 -190.81 314.32 295.68 187.38 -349.69 45.57 27.05 342.1 -249.08 -230.56 -256.76 249.75 38.57 -357.45 -330.49 -53.24 274.57 -191.22 -183.13 -312.4 340.19 123.74z"/>
   <circle class="fil1" cx="714.7" cy="37.24" r="37.24"/>
   <circle class="fil2" cx="1282.4" cy="320.9" r="37.24"/>
   <circle class="fil3" cx="1410.98" cy="936.05" r="37.24"/>
   <circle class="fil4" cx="1015.4" cy="1411.37" r="37.24"/>
   <circle class="fil5" cx="395.18" cy="1434.9" r="37.24"/>
   <circle class="fil6" cx="37.24" cy="931.34" r="37.24"/>
   <circle class="fil7" cx="149.36" cy="313.85" r="37.24"/>
   <polygon class="fil8" points="252.94,400.55 436.07,712.94 161.5,904.17 491.99,957.41 453.43,1314.86 710.19,1065.11 959.27,1295.67 932.22,953.57 1281.9,908 986.22,720.62 1177.03,406.3 834.92,530.04 714.02,174.95 593.13,524.29 "/>
   <g>
    <path class="fil9" d="M388.54 787.53c0,-172.36 139.73,-312.08 312.08,-312.08 172.36,0 312.08,139.73 312.08,312.08 0,172.36 -139.72,312.09 -312.08,312.09 -172.36,0 -312.08,-139.73 -312.08,-312.09zm312.08 345.46c190.79,0 345.46,-154.66 345.46,-345.46 0,-190.79 -154.67,-345.45 -345.46,-345.45 -190.79,0 -345.46,154.66 -345.46,345.45 0,190.79 154.67,345.46 345.46,345.46z"/>
    <path class="fil8" d="M700.63 475.45c-172.36,0 -312.08,139.73 -312.08,312.08 0,172.36 139.73,312.09 312.08,312.09 172.36,0 312.08,-139.73 312.08,-312.09 0,-172.36 -139.72,-312.08 -312.08,-312.08z"/>
   </g>
   <path class="fil10" d="M561.24 787.53c0,-76.98 62.4,-139.38 139.38,-139.38 76.98,0 139.38,62.4 139.38,139.38 0,76.98 -62.4,139.38 -139.38,139.38 -76.98,0 -139.38,-62.4 -139.38,-139.38zm309.39 0c0,-93.9 -76.11,-170.01 -170.01,-170.01 -93.9,0 -170.01,76.12 -170.01,170.01 0,93.89 76.11,170.01 170.01,170.01 93.9,0 170.01,-76.12 170.01,-170.01z"/>
   <path class="fil11 str0" d="M627.69 754.17c-2.33,0 -4.34,-0.42 -6.04,-1.27 -1.71,-0.85 -3.02,-2.06 -3.96,-3.62 -0.93,-1.57 -1.39,-3.43 -1.39,-5.58l0 -13.96c0,-2.17 0.46,-4.02 1.39,-5.59 0.93,-1.56 2.25,-2.76 3.96,-3.61 1.7,-0.84 3.71,-1.27 6.04,-1.27 2.34,0 4.36,0.43 6.05,1.27 1.68,0.85 3,2.05 3.93,3.61 0.93,1.56 1.39,3.42 1.39,5.59l0 13.96c0,2.15 -0.46,4.01 -1.39,5.58 -0.93,1.56 -2.25,2.77 -3.93,3.62 -1.69,0.84 -3.71,1.27 -6.05,1.27zm0 -5.33c1.65,0 2.97,-0.47 3.95,-1.4 0.97,-0.94 1.45,-2.2 1.44,-3.8l0 -13.85c0.02,-1.6 -0.46,-2.87 -1.43,-3.8 -0.96,-0.93 -2.28,-1.39 -3.96,-1.38 -1.66,0 -2.98,0.46 -3.94,1.39 -0.97,0.92 -1.45,2.19 -1.45,3.79l0 13.85c0,1.6 0.48,2.86 1.45,3.8 0.97,0.93 2.28,1.4 3.94,1.4zm19.83 -9.31l0 -5.15 9.82 0c1.19,0 2.14,-0.35 2.83,-1.04 0.7,-0.69 1.04,-1.62 1.04,-2.79l0 -1.84c0,-1.2 -0.34,-2.17 -1.04,-2.88 -0.69,-0.72 -1.64,-1.07 -2.83,-1.07l-9.82 0 0 -5.15 9.69 0c2.06,0 3.86,0.36 5.36,1.08 1.5,0.72 2.67,1.75 3.47,3.08 0.82,1.34 1.23,2.92 1.23,4.75l0 2c0,1.85 -0.41,3.45 -1.24,4.8 -0.83,1.34 -1.98,2.39 -3.48,3.12 -1.5,0.72 -3.28,1.09 -5.35,1.09l-9.69 0zm-2.57 14.29l0 -34.21 5.85 0 0 34.21 -5.85 0zm16.9 0l-6.95 -15.35 5.8 -1.08 7.87 16.44 -6.72 0zm8.1 0l11.39 -34.19 4.47 0 11.38 34.19 -6.18 0 -7.43 -25.14 -7.41 25.14 -6.21 0zm6.21 -6.45l0 -5.1 15.11 0 0 5.1 -15.11 0zm39.24 -6.32l8.03 -21.42 6.1 0 0 34.19 -5.41 0 0 -25.49 0.33 1.51 -7.03 18.92 -4.04 0 -7.03 -18.46 0.41 -1.97 0 25.49 -5.49 0 0 -34.19 6.18 0 7.94 21.42zm31.5 13.12c-3.49,0 -6.2,-0.91 -8.12,-2.75 -1.92,-1.83 -2.88,-4.43 -2.88,-7.79l0 -24.01 5.87 0 0 24.17c0,1.61 0.45,2.86 1.33,3.74 0.89,0.88 2.15,1.32 3.8,1.32 1.66,0 2.94,-0.44 3.83,-1.32 0.9,-0.88 1.34,-2.13 1.34,-3.74l0 -24.17 5.87 0 0 24.01c0,3.35 -0.96,5.95 -2.9,7.79 -1.92,1.84 -4.65,2.75 -8.15,2.75zm26.54 0c-2.04,0 -3.84,-0.28 -5.41,-0.85 -1.58,-0.56 -2.88,-1.4 -3.89,-2.51 -1.02,-1.1 -1.75,-2.45 -2.2,-4.05l0 0 5.54 -2.21 0 0c0.47,1.44 1.24,2.53 2.29,3.29 1.06,0.75 2.33,1.12 3.86,1.12 1.75,0 3.09,-0.33 4.05,-1.03 0.96,-0.69 1.44,-1.67 1.44,-2.94l0 -1.5c0,-0.99 -0.29,-1.77 -0.88,-2.33 -0.59,-0.56 -1.36,-1.02 -2.3,-1.36 -0.95,-0.35 -2,-0.67 -3.12,-0.97 -1.15,-0.3 -2.31,-0.64 -3.5,-1.03 -1.18,-0.39 -2.26,-0.92 -3.23,-1.56 -0.97,-0.65 -1.75,-1.52 -2.36,-2.61 -0.59,-1.09 -0.89,-2.5 -0.89,-4.23l0 -0.96c0,-2.91 0.98,-5.18 2.95,-6.77 1.96,-1.6 4.75,-2.4 8.35,-2.4 2.7,0 4.94,0.6 6.71,1.81 1.77,1.2 2.98,2.98 3.63,5.31l0 0 -5.31 2.26 0 0c-0.46,-1.38 -1.14,-2.42 -2.04,-3.14 -0.9,-0.71 -1.96,-1.07 -3.17,-1.07 -1.69,0 -2.99,0.33 -3.9,0.99 -0.92,0.66 -1.37,1.59 -1.37,2.79l0 1.13c0,1.05 0.32,1.87 0.96,2.46 0.64,0.59 1.48,1.06 2.52,1.4 1.04,0.34 2.17,0.69 3.37,1.03 1.11,0.32 2.22,0.67 3.33,1.05 1.12,0.38 2.13,0.9 3.04,1.54 0.92,0.64 1.65,1.49 2.21,2.55 0.56,1.05 0.83,2.42 0.83,4.07l0 1.5c0,2.92 -1,5.17 -2.99,6.79 -2.01,1.6 -4.84,2.41 -8.52,2.41zm-139.44 50.79c-2.3,0 -4.27,-0.42 -5.92,-1.28 -1.65,-0.85 -2.91,-2.08 -3.79,-3.69 -0.88,-1.6 -1.32,-3.52 -1.32,-5.75l0 -13.43c0,-2.24 0.44,-4.17 1.32,-5.77 0.88,-1.6 2.14,-2.84 3.79,-3.69 1.65,-0.85 3.62,-1.29 5.92,-1.29 2.23,0 4.13,0.41 5.7,1.23 1.57,0.81 2.79,2.03 3.67,3.65 0.88,1.62 1.4,3.64 1.58,6.03l0 0 -6.01 0 0 0c-0.1,-1.23 -0.36,-2.25 -0.79,-3.07 -0.43,-0.82 -0.99,-1.44 -1.69,-1.87 -0.7,-0.41 -1.52,-0.63 -2.46,-0.63 -1.56,0 -2.78,0.48 -3.69,1.45 -0.89,0.96 -1.35,2.28 -1.35,3.96l0 13.43c0,1.68 0.46,2.99 1.35,3.95 0.9,0.96 2.13,1.44 3.69,1.44 1.42,0 2.56,-0.47 3.4,-1.39 0.86,-0.93 1.36,-2.32 1.54,-4.18l0 0 6.01 0 0 0c-0.18,2.39 -0.7,4.4 -1.58,6.03 -0.88,1.62 -2.1,2.84 -3.67,3.66 -1.56,0.81 -3.46,1.22 -5.7,1.22zm12.33 -0.35l11.39 -34.19 4.46 0 11.38 34.19 -6.18 0 -7.43 -25.14 -7.41 25.14 -6.21 0zm6.21 -6.45l0 -5.1 15.11 0 0 5.1 -15.11 0zm33.64 6.8c-3.49,0 -6.2,-0.91 -8.12,-2.75 -1.92,-1.83 -2.88,-4.43 -2.88,-7.79l0 -24.01 5.87 0 0 24.17c0,1.61 0.45,2.86 1.33,3.74 0.89,0.88 2.15,1.32 3.8,1.32 1.66,0 2.94,-0.44 3.83,-1.32 0.9,-0.88 1.34,-2.13 1.34,-3.74l0 -24.17 5.87 0 0 24.01c0,3.35 -0.96,5.95 -2.9,7.79 -1.92,1.84 -4.65,2.75 -8.15,2.75zm26.54 0c-2.04,0 -3.84,-0.28 -5.41,-0.85 -1.58,-0.56 -2.88,-1.4 -3.89,-2.51 -1.02,-1.1 -1.75,-2.45 -2.2,-4.05l0 0 5.54 -2.21 0 0c0.48,1.44 1.24,2.53 2.29,3.29 1.06,0.75 2.33,1.12 3.86,1.12 1.75,0 3.1,-0.33 4.05,-1.03 0.96,-0.69 1.44,-1.67 1.44,-2.94l0 -1.5c0,-0.99 -0.29,-1.77 -0.88,-2.33 -0.59,-0.56 -1.36,-1.02 -2.3,-1.36 -0.95,-0.35 -2,-0.67 -3.12,-0.97 -1.15,-0.3 -2.31,-0.64 -3.5,-1.03 -1.18,-0.39 -2.26,-0.92 -3.23,-1.56 -0.97,-0.65 -1.75,-1.52 -2.36,-2.61 -0.6,-1.09 -0.9,-2.5 -0.9,-4.23l0 -0.96c0,-2.91 0.98,-5.18 2.95,-6.77 1.96,-1.6 4.75,-2.4 8.35,-2.4 2.7,0 4.94,0.6 6.71,1.81 1.77,1.2 2.98,2.98 3.63,5.31l0 0 -5.31 2.26 0 0c-0.46,-1.38 -1.14,-2.42 -2.04,-3.14 -0.89,-0.71 -1.96,-1.07 -3.17,-1.07 -1.69,0 -2.99,0.33 -3.9,0.99 -0.92,0.66 -1.37,1.59 -1.37,2.79l0 1.13c0,1.05 0.32,1.87 0.96,2.46 0.64,0.59 1.48,1.06 2.52,1.4 1.04,0.34 2.17,0.69 3.37,1.03 1.11,0.32 2.22,0.67 3.33,1.05 1.12,0.38 2.13,0.9 3.04,1.54 0.92,0.64 1.65,1.49 2.21,2.55 0.56,1.05 0.83,2.42 0.83,4.07l0 1.5c0,2.92 -1,5.17 -2.99,6.79 -2.01,1.6 -4.84,2.41 -8.52,2.41zm14.64 -0.35l11.39 -34.19 4.46 0 11.38 34.19 -6.18 0 -7.43 -25.14 -7.41 25.14 -6.21 0zm6.21 -6.45l0 -5.1 15.11 0 0 5.1 -15.11 0zm33.21 6.8c-2.04,0 -3.84,-0.28 -5.41,-0.85 -1.57,-0.56 -2.87,-1.4 -3.89,-2.51 -1.01,-1.1 -1.75,-2.45 -2.2,-4.05l0 0 5.54 -2.21 0 0c0.48,1.44 1.24,2.53 2.29,3.29 1.06,0.75 2.34,1.12 3.87,1.12 1.75,0 3.09,-0.33 4.05,-1.03 0.96,-0.69 1.44,-1.67 1.44,-2.94l0 -1.5c0,-0.99 -0.3,-1.77 -0.88,-2.33 -0.59,-0.56 -1.36,-1.02 -2.3,-1.36 -0.96,-0.35 -2,-0.67 -3.12,-0.97 -1.15,-0.3 -2.31,-0.64 -3.5,-1.03 -1.19,-0.39 -2.26,-0.92 -3.23,-1.56 -0.97,-0.65 -1.75,-1.52 -2.36,-2.61 -0.6,-1.09 -0.89,-2.5 -0.89,-4.23l0 -0.96c0,-2.91 0.98,-5.18 2.95,-6.77 1.96,-1.6 4.75,-2.4 8.35,-2.4 2.7,0 4.94,0.6 6.7,1.81 1.77,1.2 2.98,2.98 3.63,5.31l0 0 -5.31 2.26 0 0c-0.46,-1.38 -1.14,-2.42 -2.04,-3.14 -0.89,-0.71 -1.95,-1.07 -3.17,-1.07 -1.69,0 -2.99,0.33 -3.91,0.99 -0.92,0.66 -1.37,1.59 -1.37,2.79l0 1.13c0,1.05 0.32,1.87 0.96,2.46 0.64,0.59 1.48,1.06 2.52,1.4 1.04,0.34 2.16,0.69 3.36,1.03 1.11,0.32 2.22,0.67 3.33,1.05 1.11,0.38 2.13,0.9 3.04,1.54 0.92,0.64 1.66,1.49 2.21,2.55 0.56,1.05 0.83,2.42 0.83,4.07l0 1.5c0,2.92 -1,5.17 -3,6.79 -2,1.6 -4.84,2.41 -8.51,2.41zm-124.94 37.67l8.03 -21.42 6.1 0 0 34.19 -5.41 0 0 -25.49 0.33 1.51 -7.03 18.92 -4.04 0 -7.03 -18.46 0.41 -1.97 0 25.49 -5.49 0 0 -34.19 6.18 0 7.94 21.42zm20.9 12.77l0 -34.19 5.9 0 -0.03 34.19 -5.88 0zm2.62 0l0 -5.18 17.77 0 0 5.18 -17.77 0zm0 -14.39l0 -5.18 15.72 0 0 5.18 -15.72 0zm0 -14.62l0 -5.18 17.77 0 0 5.18 -17.77 0zm23 29.01l0 -34.19 5.9 0 -0.03 34.19 -5.88 0zm2.77 0l-0.03 -5.15 17.39 0 0 5.15 -17.36 0zm27.62 -34.19l0 34.19 -5.93 0 0 -34.19 5.93 0zm17.11 34.54c-3.49,0 -6.2,-0.91 -8.12,-2.75 -1.92,-1.83 -2.88,-4.43 -2.88,-7.79l0 -24.01 5.87 0 0 24.17c0,1.61 0.45,2.86 1.33,3.74 0.89,0.88 2.15,1.32 3.8,1.32 1.65,0 2.94,-0.44 3.83,-1.32 0.89,-0.88 1.34,-2.13 1.34,-3.74l0 -24.17 5.87 0 0 24.01c0,3.35 -0.96,5.95 -2.9,7.79 -1.92,1.84 -4.65,2.75 -8.15,2.75zm26.54 0c-2.04,0 -3.84,-0.28 -5.41,-0.85 -1.58,-0.56 -2.88,-1.4 -3.89,-2.51 -1.02,-1.1 -1.75,-2.45 -2.2,-4.05l0 0 5.54 -2.21 0 0c0.47,1.44 1.24,2.53 2.29,3.29 1.06,0.75 2.34,1.12 3.87,1.12 1.75,0 3.09,-0.33 4.05,-1.03 0.96,-0.69 1.44,-1.67 1.44,-2.94l0 -1.5c0,-0.99 -0.29,-1.77 -0.88,-2.33 -0.59,-0.56 -1.36,-1.02 -2.3,-1.36 -0.96,-0.35 -2,-0.67 -3.12,-0.97 -1.15,-0.3 -2.31,-0.64 -3.5,-1.03 -1.18,-0.39 -2.26,-0.92 -3.23,-1.56 -0.97,-0.65 -1.75,-1.52 -2.36,-2.61 -0.6,-1.09 -0.89,-2.5 -0.89,-4.23l0 -0.96c0,-2.91 0.98,-5.18 2.95,-6.77 1.96,-1.6 4.75,-2.4 8.35,-2.4 2.7,0 4.94,0.6 6.7,1.81 1.77,1.2 2.98,2.98 3.64,5.31l0 0 -5.31 2.26 0 0c-0.46,-1.38 -1.14,-2.42 -2.04,-3.14 -0.9,-0.71 -1.96,-1.07 -3.17,-1.07 -1.69,0 -2.99,0.33 -3.9,0.99 -0.92,0.66 -1.37,1.59 -1.37,2.79l0 1.13c0,1.05 0.32,1.87 0.96,2.46 0.64,0.59 1.48,1.06 2.52,1.4 1.04,0.34 2.17,0.69 3.36,1.03 1.11,0.32 2.22,0.67 3.33,1.05 1.12,0.38 2.13,0.9 3.04,1.54 0.92,0.64 1.65,1.49 2.21,2.55 0.56,1.05 0.83,2.42 0.83,4.07l0 1.5c0,2.92 -1,5.17 -3,6.79 -2,1.6 -4.84,2.41 -8.51,2.41z"/>
   <g>
    <path class="fil12" d="M546.22 593.1c33.53,-36.61 67.44,-71.57 104.22,-94.12 -67.81,9.33 -91.44,48.11 -104.22,94.12zm23.1 -34.2c8.93,-19.14 11.01,-26.9 39.8,-39.3 -16.24,14.35 -24.99,27.25 -39.8,39.3z"/>
    <path class="fil12" d="M665.52 521.81c-47.77,10.99 -72.29,27.61 -101.48,72.25 37.64,-5.83 67.9,-25.8 101.48,-72.25zm-27.89 16.93c-27.85,16.44 -37.72,22.43 -47.54,37.71 16.88,-6.85 32.87,-19.45 47.54,-37.71z"/>
    <path class="fil12" d="M686.7 552.11c-44.83,-14.75 -62.09,41.71 -131.78,54.71 57.86,17.21 78.86,-15.47 131.78,-54.71zm-82.58 45.17c18.8,-3.51 37.58,-31.72 49.45,-30.25 -14.28,10.59 -33.84,34.9 -49.45,30.25z"/>
    <circle class="fil12" cx="530.38" cy="586.51" r="11.25"/>
    <circle class="fil12" cx="570.77" cy="627.67" r="11.25"/>
   </g>
   <g>
    <path class="fil12" d="M458.96 730.57c3.64,-49.51 8.6,-97.96 23.5,-138.45 -47.45,49.33 -41.97,94.41 -23.5,138.45zm-3.06 -41.16c-4.85,-20.56 -8.02,-27.94 6.88,-55.5 -3.85,21.32 -2.73,36.87 -6.88,55.5z"/>
    <path class="fil12" d="M508.44 600.71c-30.69,38.23 -39.64,66.46 -34.9,119.59 25.93,-27.9 37.31,-62.31 34.9,-119.59zm-11.4 30.57c-11.67,30.16 -15.71,40.97 -13.95,59.05 9.01,-15.84 13.75,-35.63 13.95,-59.05z"/>
    <path class="fil12" d="M543.84 611.36c-44.32,16.2 -22.89,71.21 -69.55,124.59 56.09,-22.34 52.32,-61 69.55,-124.59zm-36.84 86.62c12.58,-14.4 9.85,-48.18 20.07,-54.38 -4.64,17.16 -4.94,48.36 -20.07,54.38z"/>
    <circle class="fil12" transform="matrix(0.18411 -0.145315 0.145315 0.18411 442.442 735.214)" r="47.97"/>
    <circle class="fil12" transform="matrix(0.18411 -0.145315 0.145315 0.18411 499.648 742.506)" r="47.97"/>
   </g>
   <g>
    <path class="fil12" d="M475.27 891.77c-27.68,-41.21 -53.66,-82.41 -66.91,-123.46 -6.92,68.1 25.21,100.19 66.91,123.46zm-27.79 -30.51c-16.5,-13.19 -23.55,-17.04 -28.82,-47.94 10.12,19.16 20.59,30.71 28.82,47.94z"/>
    <path class="fil12" d="M434.11 759.03c-0.58,49.02 9.79,76.76 46.3,115.66 3.2,-37.95 -9.07,-72.06 -46.3,-115.66zm9.88 31.09c9.41,30.94 12.91,41.94 25.44,55.08 -2.68,-18.02 -11.15,-36.52 -25.44,-55.08z"/>
    <path class="fil12" d="M468.55 745.58c-24.89,40.09 25.91,70.17 22.12,140.96 30.36,-52.18 3.56,-80.28 -22.12,-140.96zm24.43 90.9c1.03,-19.1 -21.97,-44 -17.74,-55.18 6.93,16.37 25.94,41.1 17.74,55.18z"/>
    <circle class="fil12" transform="matrix(0.055281 -0.22794 0.22794 0.055281 465.135 905.606)" r="47.97"/>
    <circle class="fil12" transform="matrix(0.055281 -0.22794 0.22794 0.055281 514.66 876.06)" r="47.97"/>
   </g>
   <g>
    <path class="fil12" d="M589.72 1009.68c-47.35,-14.9 -93.38,-30.85 -129.36,-54.64 37.13,57.51 82.26,62.51 129.36,54.64zm-40.76 -6.47c-21.12,0 -29.03,1.39 -52.44,-19.44 19.87,8.64 35.27,11.12 52.44,19.44z"/>
    <path class="fil12" d="M474.67 931.71c30.16,38.64 55.59,53.83 108.39,61.41 -21.2,-31.64 -52.09,-50.62 -108.39,-61.41zm27.13 18.11c26.67,18.29 36.27,24.69 54.27,27.13 -13.35,-12.4 -31.52,-21.56 -54.27,-27.13z"/>
    <path class="fil12" d="M493.17 899.71c5.6,46.86 64.06,38.62 105.3,96.28 -8.87,-59.71 -47.36,-64.92 -105.3,-96.28zm75.85 55.74c-11.13,-15.56 -44.63,-20.64 -48.32,-32.02 15.63,8.46 45.93,15.91 48.32,32.02z"/>
    <circle class="fil12" transform="matrix(-0.0991771 -0.212548 0.212548 -0.0991771 590.441 1026.82)" r="47.97"/>
    <circle class="fil12" transform="matrix(-0.0991771 -0.212548 0.212548 -0.0991771 610.669 972.814)" r="47.97"/>
   </g>
   <g>
    <path class="fil12" d="M851.14 593.1c-33.53,-36.61 -67.45,-71.57 -104.22,-94.12 67.81,9.33 91.43,48.11 104.22,94.12zm-23.1 -34.2c-8.93,-19.14 -11.01,-26.9 -39.79,-39.3 16.24,14.35 24.99,27.25 39.79,39.3z"/>
    <path class="fil12" d="M731.84 521.81c47.78,10.99 72.29,27.61 101.48,72.25 -37.63,-5.83 -67.89,-25.8 -101.48,-72.25zm27.89 16.93c27.85,16.44 37.72,22.43 47.54,37.71 -16.88,-6.85 -32.86,-19.45 -47.54,-37.71z"/>
    <path class="fil12" d="M710.66 552.11c44.82,-14.75 62.08,41.71 131.78,54.71 -57.86,17.21 -78.85,-15.47 -131.78,-54.71zm82.58 45.17c-18.8,-3.51 -37.58,-31.72 -49.45,-30.25 14.28,10.59 33.83,34.9 49.45,30.25z"/>
    <circle class="fil12" cx="866.98" cy="586.51" r="11.25"/>
    <circle class="fil12" cx="826.59" cy="627.67" r="11.25"/>
   </g>
   <g>
    <path class="fil12" d="M938.4 730.57c-3.64,-49.51 -8.6,-97.96 -23.5,-138.45 47.45,49.33 41.97,94.41 23.5,138.45zm3.06 -41.16c4.85,-20.56 8.02,-27.94 -6.88,-55.5 3.85,21.32 2.73,36.87 6.88,55.5z"/>
    <path class="fil12" d="M888.92 600.71c30.69,38.23 39.64,66.46 34.9,119.59 -25.93,-27.9 -37.31,-62.31 -34.9,-119.59zm11.4 30.57c11.68,30.16 15.71,40.97 13.95,59.05 -9.01,-15.84 -13.75,-35.63 -13.95,-59.05z"/>
    <path class="fil12" d="M853.53 611.36c44.32,16.2 22.89,71.21 69.54,124.59 -56.08,-22.34 -52.32,-61 -69.54,-124.59zm36.84 86.62c-12.59,-14.4 -9.85,-48.18 -20.07,-54.38 4.65,17.16 4.94,48.36 20.07,54.38z"/>
    <circle class="fil12" transform="matrix(-0.18411 -0.145315 -0.145315 0.18411 954.916 735.214)" r="47.97"/>
    <circle class="fil12" transform="matrix(-0.18411 -0.145315 -0.145315 0.18411 897.71 742.506)" r="47.97"/>
   </g>
   <g>
    <path class="fil12" d="M922.09 891.77c27.68,-41.21 53.66,-82.41 66.9,-123.46 6.92,68.1 -25.2,100.19 -66.9,123.46zm27.79 -30.51c16.5,-13.19 23.55,-17.04 28.82,-47.94 -10.12,19.16 -20.59,30.71 -28.82,47.94z"/>
    <path class="fil12" d="M963.25 759.03c0.57,49.02 -9.8,76.76 -46.3,115.66 -3.2,-37.95 9.07,-72.06 46.3,-115.66zm-9.88 31.09c-9.41,30.94 -12.91,41.94 -25.44,55.08 2.68,-18.02 11.16,-36.52 25.44,-55.08z"/>
    <path class="fil12" d="M928.81 745.58c24.89,40.09 -25.91,70.17 -22.11,140.96 -30.37,-52.18 -3.56,-80.28 22.11,-140.96zm-24.43 90.9c-1.02,-19.1 21.97,-44 17.74,-55.18 -6.92,16.37 -25.94,41.1 -17.74,55.18z"/>
    <circle class="fil12" transform="matrix(-0.055281 -0.22794 -0.22794 0.055281 932.224 905.606)" r="47.97"/>
    <circle class="fil12" transform="matrix(-0.055281 -0.22794 -0.22794 0.055281 882.699 876.06)" r="47.97"/>
   </g>
   <g>
    <path class="fil12" d="M807.64 1009.68c47.36,-14.9 93.38,-30.85 129.36,-54.64 -37.13,57.51 -82.26,62.51 -129.36,54.64zm40.76 -6.47c21.12,0 29.03,1.39 52.44,-19.44 -19.87,8.64 -35.26,11.12 -52.44,19.44z"/>
    <path class="fil12" d="M922.68 931.71c-30.16,38.64 -55.59,53.83 -108.39,61.41 21.2,-31.64 52.09,-50.62 108.39,-61.41zm-27.13 18.11c-26.67,18.29 -36.28,24.69 -54.28,27.13 13.35,-12.4 31.52,-21.56 54.28,-27.13z"/>
    <path class="fil12" d="M904.19 899.71c-5.59,46.86 -64.05,38.62 -105.3,96.28 8.87,-59.71 47.36,-64.92 105.3,-96.28zm-75.85 55.74c11.13,-15.56 44.64,-20.64 48.32,-32.02 -15.63,8.46 -45.93,15.91 -48.32,32.02z"/>
    <circle class="fil12" transform="matrix(0.0991771 -0.212548 -0.212548 -0.0991771 806.918 1026.82)" r="47.97"/>
    <circle class="fil12" transform="matrix(0.0991771 -0.212548 -0.212548 -0.0991771 786.69 972.814)" r="47.97"/>
   </g>
   <path class="fil12" d="M718 1028.57l0.91 -4.71c15.75,-0.55 27.44,-0.64 33.89,2.27 2.77,7.21 1.03,11.94 -3.73,15.01 -9.82,-1.64 -19.45,-7.24 -31.07,-12.58zm-13.36 -25.94c-2.72,3.06 -5.13,3.68 -7.5,0.64 -21.72,-17.56 -44.28,-28.96 -49.27,-18.21 -11.14,17.61 -12.14,37.16 -10.71,57.63 5.16,11.03 22.58,9.35 42.63,4.93 13.59,-5.26 28.68,-5.81 46.27,1.5 18.03,2.68 30.94,2.28 35,-9.99 6.07,-24.85 4.34,-36.86 -5.01,-52.57 -9.16,-12.58 -28.53,-2.22 -51.41,16.07zm-21.15 10.27l-1.98 4.37c-12.56,-2.39 -23.66,-3.4 -32.61,-7.75 -2.1,-5.26 -0.78,-10.12 5.66,-14.4 6.94,1.37 16.41,8.21 28.93,17.79zm-1.88 10.96l0.92 4.71c-11.62,5.33 -21.25,10.94 -31.07,12.58 -4.75,-3.07 -6.5,-7.8 -3.73,-15.01 6.45,-2.91 18.14,-2.82 33.88,-2.27zm37.41 -6.59l-1.99 -4.37c12.52,-9.58 22,-16.42 28.93,-17.79 6.44,4.28 7.76,9.14 5.66,14.4 -8.95,4.35 -20.05,5.36 -32.61,7.75z"/>
   <g>
    <g>
     <path class="fil13 str1" d="M724.13 384.11c15.74,-3.66 25.8,2.67 34.46,10.7 -5.55,-2.66 -10.59,-5.59 -16.36,-6.9 0.35,1.52 1.6,2.71 1.94,4.22 -6.29,-3.19 -13.44,-4.23 -19.6,-2.54 -1.35,-1.29 -0.3,-3.56 -0.45,-5.48z"/>
     <path id="1" class="fil12" d="M724.13 384.11c15.74,-3.66 25.8,2.67 34.46,10.7 -5.55,-2.66 -10.59,-5.59 -16.36,-6.9 0.35,1.52 1.6,2.71 1.94,4.22 -6.29,-3.19 -13.44,-4.23 -19.6,-2.54 -1.35,-1.29 -0.3,-3.56 -0.45,-5.48z"/>
    </g>
    <g>
     <path class="fil13 str2" d="M708.88 374.51c-40.2,-10.37 -29.02,-58.11 6.95,-99.15 1,8.03 29.87,37.74 28.72,64.89 -0.83,21.13 -7.45,35.94 -35.67,34.25z"/>
     <path id="1" class="fil12" d="M708.88 374.51c-40.2,-10.37 -29.02,-58.11 6.95,-99.15 1,8.03 29.87,37.74 28.72,64.89 -0.83,21.13 -7.45,35.94 -35.67,34.25z"/>
    </g>
    <g>
     <path class="fil13 str3" d="M696.08 304.48c5.16,-3.03 4.02,13.32 8.49,36.48 1.36,2.76 2.3,2.47 2.82,-0.88 -2.56,-18.87 -3.39,-37.81 -0.98,-51.29 -3.52,4.96 -7.26,10.47 -10.33,15.69z"/>
     <path id="1" class="fil12" d="M696.08 304.48c5.16,-3.03 4.02,13.32 8.49,36.48 1.36,2.76 2.3,2.47 2.82,-0.88 -2.56,-18.87 -3.39,-37.81 -0.98,-51.29 -3.52,4.96 -7.26,10.47 -10.33,15.69z"/>
    </g>
    <g>
     <path class="fil13 str4" d="M731 303.1c-5.31,-2.75 -3.5,11.73 -6.75,35.09 -1.22,2.84 -2.17,2.58 -2.86,-0.73 1.57,-18.98 2.99,-37.78 -0.12,-51.12 2.88,4.79 7.26,11.15 9.73,16.76z"/>
     <path id="1" class="fil12" d="M731 303.1c-5.31,-2.75 -3.5,11.73 -6.75,35.09 -1.22,2.84 -2.17,2.58 -2.86,-0.73 1.57,-18.98 2.99,-37.78 -0.12,-51.12 2.88,4.79 7.26,11.15 9.73,16.76z"/>
    </g>
    <g>
     <path class="fil13 str5" d="M737.55 316.01c0.2,16.95 -2.09,30.58 -6.81,43.24 3.55,2.43 10.51,-37.64 6.81,-43.24z"/>
     <path id="1" class="fil12" d="M737.55 316.01c0.2,16.95 -2.09,30.58 -6.81,43.24 3.55,2.43 10.51,-37.64 6.81,-43.24z"/>
    </g>
    <g>
     <path class="fil13 str6" d="M689.14 317.28c0.69,16.93 3.69,30.43 9.06,42.83 -3.41,2.61 -12.46,-37.04 -9.06,-42.83z"/>
     <path id="1" class="fil12" d="M689.14 317.28c0.69,16.93 3.69,30.43 9.06,42.83 -3.41,2.61 -12.46,-37.04 -9.06,-42.83z"/>
    </g>
    <g>
     <path class="fil13 str7" d="M711.37 365.64c2.27,-0.06 4.16,1.78 4.22,4.11 0.06,2.32 -1.73,4.26 -4,4.32 -2.27,0.06 -4.17,-1.78 -4.23,-4.11 -0.06,-2.32 1.73,-4.26 4.01,-4.32z"/>
     <path id="1" class="fil12" d="M711.37 365.64c2.27,-0.06 4.16,1.78 4.22,4.11 0.06,2.32 -1.73,4.26 -4,4.32 -2.27,0.06 -4.17,-1.78 -4.23,-4.11 -0.06,-2.32 1.73,-4.26 4.01,-4.32z"/>
    </g>
    <g>
     <path class="fil13 str8" d="M724.56 354.89c-2.56,5.24 -8.7,5.3 -10.91,12.18 9.17,1.06 8.99,-3.9 10.91,-12.18z"/>
     <path id="1" class="fil12" d="M724.56 354.89c-2.56,5.24 -8.7,5.3 -10.91,12.18 9.17,1.06 8.99,-3.9 10.91,-12.18z"/>
    </g>
    <g>
     <path class="fil13 str9" d="M697.99 355.29c2.83,5.1 8.96,4.84 11.53,11.6 -9.1,1.54 -9.18,-3.42 -11.53,-11.6z"/>
     <path id="1" class="fil12" d="M697.99 355.29c2.83,5.1 8.96,4.84 11.53,11.6 -9.1,1.54 -9.18,-3.42 -11.53,-11.6z"/>
    </g>
    <g>
     <path class="fil13 str10" d="M645.31 392.58c31.96,8.23 28.52,-29.96 64.69,-12.07 -1.52,4.11 -3.04,8.22 -4.56,12.33 0.17,0.07 -29.55,32.35 -60.13,-0.26z"/>
     <path id="1" class="fil12" d="M645.31 392.58c31.96,8.23 28.52,-29.96 64.69,-12.07 -1.52,4.11 -3.04,8.22 -4.56,12.33 0.17,0.07 -29.55,32.35 -60.13,-0.26z"/>
    </g>
    <g>
     <path class="fil13 str11" d="M645.34 417.01c31.96,8.22 28.51,-29.96 64.69,-12.07 -1.52,4.11 -3.07,7 -4.59,11.11 -28.38,-6.35 -19.75,33.68 -60.1,0.96z"/>
     <path id="1" class="fil12" d="M645.34 417.01c31.96,8.22 28.51,-29.96 64.69,-12.07 -1.52,4.11 -3.07,7 -4.59,11.11 -28.38,-6.35 -19.75,33.68 -60.1,0.96z"/>
    </g>
    <g>
     <path class="fil13 str12" d="M704.56 382.48c-15.91,-2.83 -24.71,3.99 -32.94,12.47 5.41,-2.94 10.28,-6.13 15.98,-7.74 -0.26,1.53 -1.45,2.78 -1.72,4.32 6.11,-3.52 12.27,-5.52 18.51,-4.15 0.05,-1.94 0.13,-2.95 0.18,-4.89z"/>
     <path id="1" class="fil12" d="M704.56 382.48c-15.91,-2.83 -24.71,3.99 -32.94,12.47 5.41,-2.94 10.28,-6.13 15.98,-7.74 -0.26,1.53 -1.45,2.78 -1.72,4.32 6.11,-3.52 12.27,-5.52 18.51,-4.15 0.05,-1.94 0.13,-2.95 0.18,-4.89z"/>
    </g>
    <g>
     <path class="fil13 str13" d="M704.58 406.91c-15.91,-2.83 -24.71,3.99 -32.94,12.47 5.4,-2.94 10.27,-6.13 15.97,-7.75 -0.26,1.54 -1.45,2.79 -1.72,4.32 6.11,-3.52 12.27,-5.51 18.51,-4.15 0.05,-1.94 0.12,-2.95 0.17,-4.89z"/>
     <path id="1" class="fil12" d="M704.58 406.91c-15.91,-2.83 -24.71,3.99 -32.94,12.47 5.4,-2.94 10.27,-6.13 15.97,-7.75 -0.26,1.54 -1.45,2.79 -1.72,4.32 6.11,-3.52 12.27,-5.51 18.51,-4.15 0.05,-1.94 0.12,-2.95 0.17,-4.89z"/>
    </g>
    <g>
     <path class="fil13 str14" d="M782.07 393.89c-31.48,9.88 -28.82,-28.46 -60.45,-12.47 1.73,4.02 0.9,14.84 2.63,18.87 -0.17,0.08 28.98,27.77 57.82,-6.4z"/>
     <path id="1" class="fil12" d="M782.07 393.89c-31.48,9.88 -28.82,-28.46 -60.45,-12.47 1.73,4.02 0.9,14.84 2.63,18.87 -0.17,0.08 28.98,27.77 57.82,-6.4z"/>
    </g>
    <g>
     <path class="fil13 str15" d="M785.41 416.71c-29.23,7.95 -38.64,-31.75 -62.9,-13.01 1.73,4.02 -1.71,8.49 0.02,12.52 28.01,-7.83 24.29,35.27 62.88,0.49z"/>
     <path id="1" class="fil12" d="M785.41 416.71c-29.23,7.95 -38.64,-31.75 -62.9,-13.01 1.73,4.02 -1.71,8.49 0.02,12.52 28.01,-7.83 24.29,35.27 62.88,0.49z"/>
    </g>
    <g>
     <path class="fil13 str16" d="M724.18 409.45c15.74,-3.66 26.42,2.96 35.08,10.99 -5.55,-2.66 -10.59,-5.59 -16.36,-6.9 0.35,1.52 1.6,2.71 1.94,4.23 -6.29,-3.2 -15.59,-4.79 -21.75,-3.09 -0.15,-1.93 1.24,-3.29 1.08,-5.22z"/>
     <path id="1" class="fil12" d="M724.18 409.45c15.74,-3.66 26.42,2.96 35.08,10.99 -5.55,-2.66 -10.59,-5.59 -16.36,-6.9 0.35,1.52 1.6,2.71 1.94,4.23 -6.29,-3.2 -15.59,-4.79 -21.75,-3.09 -0.15,-1.93 1.24,-3.29 1.08,-5.22z"/>
    </g>
    <g>
     <path class="fil13 str17" d="M703.2 377.33c-0.1,-3.29 19.34,-2.58 20.74,-0.54l0.95 36.39c-2.15,7.28 -19.04,7.32 -20.74,0.54l-0.95 -36.39z"/>
     <path id="1" class="fil12" d="M703.2 377.33c-0.1,-3.29 19.34,-2.58 20.74,-0.54l0.95 36.39c-2.15,7.28 -19.04,7.32 -20.74,0.54l-0.95 -36.39z"/>
    </g>
    <g>
     <path class="fil13 str18" d="M713.39 387.81c3.62,-0.1 6.63,2.62 6.72,6.05 0.09,3.44 -2.77,6.3 -6.39,6.4 -3.62,0.09 -6.63,-2.62 -6.72,-6.06 -0.09,-3.44 2.78,-6.3 6.39,-6.39z"/>
     <path id="1" class="fil12" d="M713.39 387.81c3.62,-0.1 6.63,2.62 6.72,6.05 0.09,3.44 -2.77,6.3 -6.39,6.4 -3.62,0.09 -6.63,-2.62 -6.72,-6.06 -0.09,-3.44 2.78,-6.3 6.39,-6.39z"/>
    </g>
    <g>
     <path class="fil13 str19" d="M714.77 387.77c2.86,-0.07 5.24,2.07 5.31,4.79 0.07,2.72 -2.19,4.98 -5.05,5.06 -2.86,0.07 -5.24,-2.07 -5.31,-4.79 -0.07,-2.72 2.19,-4.98 5.05,-5.06z"/>
     <path id="1" class="fil12" d="M714.77 387.77c2.86,-0.07 5.24,2.07 5.31,4.79 0.07,2.72 -2.19,4.98 -5.05,5.06 -2.86,0.07 -5.24,-2.07 -5.31,-4.79 -0.07,-2.72 2.19,-4.98 5.05,-5.06z"/>
    </g>
   </g>
   <g>
    <g>
     <path class="fil13 str20" d="M1021.66 542.09c13.05,9.54 14.81,21.29 14.38,33.1 -1.61,-5.94 -2.68,-11.66 -5.45,-16.9 -0.93,1.25 -1.01,2.98 -1.93,4.23 -1.68,-6.85 -5.57,-12.94 -10.87,-16.51 0.09,-1.87 2.5,-2.54 3.87,-3.92z"/>
     <path id="1" class="fil12" d="M1021.66 542.09c13.05,9.54 14.81,21.29 14.38,33.1 -1.61,-5.94 -2.68,-11.66 -5.45,-16.9 -0.93,1.25 -1.01,2.98 -1.93,4.23 -1.68,-6.85 -5.57,-12.94 -10.87,-16.51 0.09,-1.87 2.5,-2.54 3.87,-3.92z"/>
    </g>
    <g>
     <path class="fil13 str21" d="M1018.99 524.27c-18.38,-37.23 25.09,-59.91 79.66,-59.44 -5.43,6 -9.1,47.26 -30.43,64.11 -16.55,13.16 -32.09,17.8 -49.23,-4.68z"/>
     <path id="1" class="fil12" d="M1018.99 524.27c-18.38,-37.23 25.09,-59.91 79.66,-59.44 -5.43,6 -9.1,47.26 -30.43,64.11 -16.55,13.16 -32.09,17.8 -49.23,-4.68z"/>
    </g>
    <g>
     <path class="fil13 str22" d="M1063.69 468.87c5.66,1.94 -7.47,11.74 -22.1,30.24 -1.21,2.84 -0.37,3.35 2.5,1.56 12.63,-14.25 26.44,-27.23 38.23,-34.21 -6.06,0.57 -12.67,1.34 -18.63,2.42z"/>
     <path id="1" class="fil12" d="M1063.69 468.87c5.66,1.94 -7.47,11.74 -22.1,30.24 -1.21,2.84 -0.37,3.35 2.5,1.56 12.63,-14.25 26.44,-27.23 38.23,-34.21 -6.06,0.57 -12.67,1.34 -18.63,2.42z"/>
    </g>
    <g>
     <path class="fil13 str23" d="M1087.53 494.44c-1.38,-5.83 -11.17,5 -30.99,17.79 -2.94,0.93 -3.37,0.05 -1.31,-2.64 15.41,-11.2 30.58,-22.39 38.66,-33.45 -1.75,5.31 -3.71,12.78 -6.35,18.31z"/>
     <path id="1" class="fil12" d="M1087.53 494.44c-1.38,-5.83 -11.17,5 -30.99,17.79 -2.94,0.93 -3.37,0.05 -1.31,-2.64 15.41,-11.2 30.58,-22.39 38.66,-33.45 -1.75,5.31 -3.71,12.78 -6.35,18.31z"/>
    </g>
    <g>
     <path class="fil13 str24" d="M1082.01 507.82c-12.71,11.21 -24.54,18.37 -37.21,23.06 0.47,4.28 35.37,-16.6 37.21,-23.06z"/>
     <path id="1" class="fil12" d="M1082.01 507.82c-12.71,11.21 -24.54,18.37 -37.21,23.06 0.47,4.28 35.37,-16.6 37.21,-23.06z"/>
    </g>
    <g>
     <path class="fil13 str25" d="M1049.47 471.96c-12.38,11.57 -20.65,22.65 -26.55,34.81 -4.21,-0.88 19.94,-33.61 26.55,-34.81z"/>
     <path id="1" class="fil12" d="M1049.47 471.96c-12.38,11.57 -20.65,22.65 -26.55,34.81 -4.21,-0.88 19.94,-33.61 26.55,-34.81z"/>
    </g>
    <g>
     <path class="fil13 str26" d="M1027.33 520.36c1.53,1.68 1.37,4.32 -0.36,5.88 -1.72,1.56 -4.36,1.47 -5.88,-0.21 -1.53,-1.69 -1.37,-4.32 0.35,-5.88 1.72,-1.57 4.36,-1.47 5.89,0.21z"/>
     <path id="1" class="fil12" d="M1027.33 520.36c1.53,1.68 1.37,4.32 -0.36,5.88 -1.72,1.56 -4.36,1.47 -5.88,-0.21 -1.53,-1.69 -1.37,-4.32 0.35,-5.88 1.72,-1.57 4.36,-1.47 5.89,0.21z"/>
    </g>
    <g>
     <path class="fil13 str27" d="M1044.08 523.35c-5.64,1.48 -9.69,-3.13 -16.35,-0.32 5.18,7.63 8.82,4.27 16.35,0.32z"/>
     <path id="1" class="fil12" d="M1044.08 523.35c-5.64,1.48 -9.69,-3.13 -16.35,-0.32 5.18,7.63 8.82,4.27 16.35,0.32z"/>
    </g>
    <g>
     <path class="fil13 str28" d="M1026.44 503.48c-2.02,5.47 2.18,9.95 -1.26,16.31 -7.1,-5.89 -3.4,-9.19 1.26,-16.31z"/>
     <path id="1" class="fil12" d="M1026.44 503.48c-2.02,5.47 2.18,9.95 -1.26,16.31 -7.1,-5.89 -3.4,-9.19 1.26,-16.31z"/>
    </g>
    <g>
     <path class="fil13 str29" d="M963.8 487.89c14.62,29.58 41.31,2.06 51.36,41.14 -4.11,1.53 -8.21,3.06 -12.32,4.59 0.05,0.18 -43.79,-1.28 -39.04,-45.74z"/>
     <path id="1" class="fil12" d="M963.8 487.89c14.62,29.58 41.31,2.06 51.36,41.14 -4.11,1.53 -8.21,3.06 -12.32,4.59 0.05,0.18 -43.79,-1.28 -39.04,-45.74z"/>
    </g>
    <g>
     <path class="fil13 str30" d="M945.31 503.86c14.62,29.58 41.31,2.06 51.36,41.14 -4.11,1.53 -7.31,2.24 -11.42,3.77 -13.71,-25.65 -38.41,7.01 -39.95,-44.91z"/>
     <path id="1" class="fil12" d="M945.31 503.86c14.62,29.58 41.31,2.06 51.36,41.14 -4.11,1.53 -7.31,2.24 -11.42,3.77 -13.71,-25.65 -38.41,7.01 -39.95,-44.91z"/>
    </g>
    <g>
     <path class="fil13 str31" d="M1010.12 526.2c-8.24,-13.91 -19.15,-16.12 -30.94,-16.82 5.76,2.17 11.35,3.78 16.29,7.05 -1.34,0.8 -3.06,0.72 -4.39,1.52 6.65,2.33 12.18,5.7 15.22,11.32 1.5,-1.23 2.32,-1.83 3.82,-3.06z"/>
     <path id="1" class="fil12" d="M1010.12 526.2c-8.24,-13.91 -19.15,-16.12 -30.94,-16.82 5.76,2.17 11.35,3.78 16.29,7.05 -1.34,0.8 -3.06,0.72 -4.39,1.52 6.65,2.33 12.18,5.7 15.22,11.32 1.5,-1.23 2.32,-1.83 3.82,-3.06z"/>
    </g>
    <g>
     <path class="fil13 str32" d="M991.63 542.16c-8.24,-13.9 -19.15,-16.12 -30.94,-16.82 5.76,2.17 11.35,3.79 16.29,7.05 -1.34,0.8 -3.06,0.72 -4.39,1.52 6.65,2.34 12.18,5.7 15.22,11.32 1.5,-1.23 2.32,-1.83 3.82,-3.06z"/>
     <path id="1" class="fil12" d="M991.63 542.16c-8.24,-13.9 -19.15,-16.12 -30.94,-16.82 5.76,2.17 11.35,3.79 16.29,7.05 -1.34,0.8 -3.06,0.72 -4.39,1.52 6.65,2.34 12.18,5.7 15.22,11.32 1.5,-1.23 2.32,-1.83 3.82,-3.06z"/>
    </g>
    <g>
     <path class="fil13 str33" d="M1052.05 592.37c-28.03,-17.4 2.76,-40.41 -30,-53.94 -1.92,3.94 -10.66,10.36 -12.58,14.3 -0.17,-0.07 -2.13,40.08 42.58,39.64z"/>
     <path id="1" class="fil12" d="M1052.05 592.37c-28.03,-17.4 2.76,-40.41 -30,-53.94 -1.92,3.94 -10.66,10.36 -12.58,14.3 -0.17,-0.07 -2.13,40.08 42.58,39.64z"/>
    </g>
    <g>
     <path class="fil13 str34" d="M1036.95 609.8c-25.11,-16.96 -1.16,-50 -31.19,-56.16 -1.92,3.94 -7.55,4.25 -9.47,8.19 24.21,16.12 -10.88,41.43 40.66,47.97z"/>
     <path id="1" class="fil12" d="M1036.95 609.8c-25.11,-16.96 -1.16,-50 -31.19,-56.16 -1.92,3.94 -7.55,4.25 -9.47,8.19 24.21,16.12 -10.88,41.43 40.66,47.97z"/>
    </g>
    <g>
     <path class="fil13 str35" d="M1002.49 558.67c13.05,9.54 15,21.95 14.56,33.76 -1.61,-5.94 -2.68,-11.67 -5.44,-16.9 -0.93,1.25 -1.01,2.98 -1.94,4.23 -1.68,-6.85 -6.55,-14.94 -11.85,-18.5 1.36,-1.37 3.3,-1.21 4.66,-2.58z"/>
     <path id="1" class="fil12" d="M1002.49 558.67c13.05,9.54 15,21.95 14.56,33.76 -1.61,-5.94 -2.68,-11.67 -5.44,-16.9 -0.93,1.25 -1.01,2.98 -1.94,4.23 -1.68,-6.85 -6.55,-14.94 -11.85,-18.5 1.36,-1.37 3.3,-1.21 4.66,-2.58z"/>
    </g>
    <g>
     <path class="fil13 str36" d="M1013.14 521.81c2.43,-2.23 14.57,12.97 13.94,15.36l-26.95 24.46c-6.92,3.13 -17.97,-9.64 -13.95,-15.36l26.96 -24.47z"/>
     <path id="1" class="fil12" d="M1013.14 521.81c2.43,-2.23 14.57,12.97 13.94,15.36l-26.95 24.46c-6.92,3.13 -17.97,-9.64 -13.95,-15.36l26.96 -24.47z"/>
    </g>
    <g>
     <path class="fil13 str37" d="M1011.85 536.37c2.43,2.68 2.35,6.73 -0.2,9.04 -2.55,2.31 -6.59,2.01 -9.02,-0.67 -2.43,-2.68 -2.34,-6.73 0.2,-9.04 2.55,-2.31 6.59,-2.01 9.02,0.67z"/>
     <path id="1" class="fil12" d="M1011.85 536.37c2.43,2.68 2.35,6.73 -0.2,9.04 -2.55,2.31 -6.59,2.01 -9.02,-0.67 -2.43,-2.68 -2.34,-6.73 0.2,-9.04 2.55,-2.31 6.59,-2.01 9.02,0.67z"/>
    </g>
    <g>
     <path class="fil13 str38" d="M1012.77 537.39c1.92,2.12 1.85,5.32 -0.16,7.15 -2.01,1.83 -5.21,1.59 -7.13,-0.53 -1.92,-2.12 -1.86,-5.32 0.16,-7.15 2.01,-1.83 5.21,-1.59 7.13,0.53z"/>
     <path id="1" class="fil12" d="M1012.77 537.39c1.92,2.12 1.85,5.32 -0.16,7.15 -2.01,1.83 -5.21,1.59 -7.13,-0.53 -1.92,-2.12 -1.86,-5.32 0.16,-7.15 2.01,-1.83 5.21,-1.59 7.13,0.53z"/>
    </g>
   </g>
   <g>
    <g>
     <path class="fil13 str39" d="M1094.57 877.63c1,16.13 -6.91,25 -16.27,32.21 3.54,-5.03 7.27,-9.51 9.52,-14.98 -1.55,0.09 -2.94,1.12 -4.49,1.21 4.19,-5.67 6.4,-12.55 5.76,-18.91 1.5,-1.12 3.56,0.3 5.48,0.47z"/>
     <path id="1" class="fil12" d="M1094.57 877.63c1,16.13 -6.91,25 -16.27,32.21 3.54,-5.03 7.27,-9.51 9.52,-14.98 -1.55,0.09 -2.94,1.12 -4.49,1.21 4.19,-5.67 6.4,-12.55 5.76,-18.91 1.5,-1.12 3.56,0.3 5.48,0.47z"/>
    </g>
    <g>
     <path class="fil13 str40" d="M1106.57 864.18c16.89,-37.92 62.12,-18.98 96.62,23.29 -8.09,-0.34 -42.17,23.2 -68.76,17.56 -20.69,-4.32 -34.2,-13.3 -27.86,-40.85z"/>
     <path id="1" class="fil12" d="M1106.57 864.18c16.89,-37.92 62.12,-18.98 96.62,23.29 -8.09,-0.34 -42.17,23.2 -68.76,17.56 -20.69,-4.32 -34.2,-13.3 -27.86,-40.85z"/>
    </g>
    <g>
     <path class="fil13 str41" d="M1177.74 863.17c2.13,5.59 -13.81,1.75 -37.38,2.32 -2.95,0.88 -2.81,1.86 0.41,2.92 19.03,0.61 37.85,2.94 50.74,7.54 -4.31,-4.29 -9.12,-8.89 -13.76,-12.79z"/>
     <path id="1" class="fil12" d="M1177.74 863.17c2.13,5.59 -13.81,1.75 -37.38,2.32 -2.95,0.88 -2.81,1.86 0.41,2.92 19.03,0.61 37.85,2.94 50.74,7.54 -4.31,-4.29 -9.12,-8.89 -13.76,-12.79z"/>
    </g>
    <g>
     <path class="fil13 str42" d="M1173.32 897.84c3.6,-4.79 -10.99,-5.4 -33.49,-12.48 -2.59,-1.67 -2.19,-2.56 1.19,-2.7 18.46,4.69 36.76,9.22 50.43,8.36 -5.21,2.05 -12.2,5.31 -18.14,6.81z"/>
     <path id="1" class="fil12" d="M1173.32 897.84c3.6,-4.79 -10.99,-5.4 -33.49,-12.48 -2.59,-1.67 -2.19,-2.56 1.19,-2.7 18.46,4.69 36.76,9.22 50.43,8.36 -5.21,2.05 -12.2,5.31 -18.14,6.81z"/>
    </g>
    <g>
     <path class="fil13 str43" d="M1159.5 902.15c-16.74,-2.62 -29.81,-7.14 -41.51,-13.88 -2.99,3.09 35.37,16.6 41.51,13.88z"/>
     <path id="1" class="fil12" d="M1159.5 902.15c-16.74,-2.62 -29.81,-7.14 -41.51,-13.88 -2.99,3.09 35.37,16.6 41.51,13.88z"/>
    </g>
    <g>
     <path class="fil13 str44" d="M1166.27 854.2c-16.81,-2.13 -30.62,-1.41 -43.73,1.83 -2.01,-3.8 38.59,-6.14 43.73,-1.83z"/>
     <path id="1" class="fil12" d="M1166.27 854.2c-16.81,-2.13 -30.62,-1.41 -43.73,1.83 -2.01,-3.8 38.59,-6.14 43.73,-1.83z"/>
    </g>
    <g>
     <path class="fil13 str45" d="M1114.9 868.1c-0.31,2.25 -2.44,3.81 -4.75,3.49 -2.3,-0.33 -3.91,-2.42 -3.6,-4.67 0.32,-2.25 2.45,-3.81 4.75,-3.48 2.31,0.32 3.92,2.41 3.6,4.66z"/>
     <path id="1" class="fil12" d="M1114.9 868.1c-0.31,2.25 -2.44,3.81 -4.75,3.49 -2.3,-0.33 -3.91,-2.42 -3.6,-4.67 0.32,-2.25 2.45,-3.81 4.75,-3.48 2.31,0.32 3.92,2.41 3.6,4.66z"/>
    </g>
    <g>
     <path class="fil13 str46" d="M1123.31 882.89c-4.74,-3.39 -3.78,-9.45 -10.2,-12.79 -2.57,8.87 2.35,9.51 10.2,12.79z"/>
     <path id="1" class="fil12" d="M1123.31 882.89c-4.74,-3.39 -3.78,-9.45 -10.2,-12.79 -2.57,8.87 2.35,9.51 10.2,12.79z"/>
    </g>
    <g>
     <path class="fil13 str47" d="M1127.32 856.63c-5.49,1.95 -6.25,8.04 -13.35,9.45 -0,-9.23 4.9,-8.48 13.35,-9.45z"/>
     <path id="1" class="fil12" d="M1127.32 856.63c-5.49,1.95 -6.25,8.04 -13.35,9.45 -0,-9.23 4.9,-8.48 13.35,-9.45z"/>
    </g>
    <g>
     <path class="fil13 str48" d="M1099.29 798.49c-13.41,30.15 24.82,33.09 1.18,65.8 -3.81,-2.18 -7.61,-4.36 -11.41,-6.55 -0.1,0.16 -27.01,-34.5 10.23,-59.25z"/>
     <path id="1" class="fil12" d="M1099.29 798.49c-13.41,30.15 24.82,33.09 1.18,65.8 -3.81,-2.18 -7.61,-4.36 -11.41,-6.55 -0.1,0.16 -27.01,-34.5 10.23,-59.25z"/>
    </g>
    <g>
     <path class="fil13 str49" d="M1075.19 794.46c-13.41,30.15 24.82,33.09 1.18,65.8 -3.8,-2.18 -6.39,-4.19 -10.2,-6.37 10.98,-26.94 -29.94,-25.06 9.02,-59.43z"/>
     <path id="1" class="fil12" d="M1075.19 794.46c-13.41,30.15 24.82,33.09 1.18,65.8 -3.8,-2.18 -6.39,-4.19 -10.2,-6.37 10.98,-26.94 -29.94,-25.06 9.02,-59.43z"/>
    </g>
    <g>
     <path class="fil13 str50" d="M1099.42 858.59c5.43,-15.22 0.16,-25.03 -6.83,-34.55 2.01,5.82 4.34,11.15 4.99,17.04 -1.47,-0.52 -2.51,-1.9 -3.98,-2.41 2.46,6.61 3.4,13.01 1.03,18.94 1.9,0.37 2.89,0.62 4.79,0.99z"/>
     <path id="1" class="fil12" d="M1099.42 858.59c5.43,-15.22 0.16,-25.03 -6.83,-34.55 2.01,5.82 4.34,11.15 4.99,17.04 -1.47,-0.52 -2.51,-1.9 -3.98,-2.41 2.46,6.61 3.4,13.01 1.03,18.94 1.9,0.37 2.89,0.62 4.79,0.99z"/>
    </g>
    <g>
     <path class="fil13 str51" d="M1075.32 854.57c5.43,-15.22 0.16,-25.03 -6.83,-34.55 2.01,5.82 4.34,11.15 4.99,17.04 -1.47,-0.52 -2.51,-1.9 -3.97,-2.41 2.46,6.61 3.4,13.01 1.02,18.94 1.9,0.37 2.89,0.62 4.8,0.99z"/>
     <path id="1" class="fil12" d="M1075.32 854.57c5.43,-15.22 0.16,-25.03 -6.83,-34.55 2.01,5.82 4.34,11.15 4.99,17.04 -1.47,-0.52 -2.51,-1.9 -3.97,-2.41 2.46,6.61 3.4,13.01 1.02,18.94 1.9,0.37 2.89,0.62 4.8,0.99z"/>
    </g>
    <g>
     <path class="fil13 str52" d="M1075.31 933.14c-4.53,-32.69 32.85,-23.7 22.32,-57.55 -4.26,1.04 -14.78,-1.58 -19.04,-0.54 -0.05,-0.18 -32.19,23.97 -3.28,58.08z"/>
     <path id="1" class="fil12" d="M1075.31 933.14c-4.53,-32.69 32.85,-23.7 22.32,-57.55 -4.26,1.04 -14.78,-1.58 -19.04,-0.54 -0.05,-0.18 -32.19,23.97 -3.28,58.08z"/>
    </g>
    <g>
     <path class="fil13 str53" d="M1052.26 932.65c-2.99,-30.15 37.72,-32.84 23.27,-59.88 -4.26,1.04 -8.1,-3.09 -12.35,-2.05 3.08,28.92 -38.82,18.1 -10.92,61.93z"/>
     <path id="1" class="fil12" d="M1052.26 932.65c-2.99,-30.15 37.72,-32.84 23.27,-59.88 -4.26,1.04 -8.1,-3.09 -12.35,-2.05 3.08,28.92 -38.82,18.1 -10.92,61.93z"/>
    </g>
    <g>
     <path class="fil13 str54" d="M1069.57 873.48c1,16.13 -7.3,25.56 -16.66,32.77 3.54,-5.03 7.27,-9.51 9.52,-14.98 -1.55,0.09 -2.93,1.13 -4.49,1.21 4.19,-5.67 7.3,-14.58 6.66,-20.93 1.93,0.17 3.04,1.76 4.97,1.94z"/>
     <path id="1" class="fil12" d="M1069.57 873.48c1,16.13 -7.3,25.56 -16.66,32.77 3.54,-5.03 7.27,-9.51 9.52,-14.98 -1.55,0.09 -2.93,1.13 -4.49,1.21 4.19,-5.67 7.3,-14.58 6.66,-20.93 1.93,0.17 3.04,1.76 4.97,1.94z"/>
    </g>
    <g>
     <path class="fil13 str55" d="M1104.73 858.11c3.26,0.45 -0.66,19.5 -2.9,20.54l-36.04 -5.1c-6.83,-3.33 -4.07,-19.99 2.9,-20.54l36.04 5.1z"/>
     <path id="1" class="fil12" d="M1104.73 858.11c3.26,0.45 -0.66,19.5 -2.9,20.54l-36.04 -5.1c-6.83,-3.33 -4.07,-19.99 2.9,-20.54l36.04 5.1z"/>
    </g>
    <g>
     <path class="fil13 str56" d="M1092.7 866.42c-0.51,3.59 -3.68,6.1 -7.08,5.62 -3.4,-0.48 -5.76,-3.78 -5.25,-7.37 0.51,-3.59 3.68,-6.1 7.08,-5.62 3.4,0.48 5.75,3.78 5.25,7.37z"/>
     <path id="1" class="fil12" d="M1092.7 866.42c-0.51,3.59 -3.68,6.1 -7.08,5.62 -3.4,-0.48 -5.76,-3.78 -5.25,-7.37 0.51,-3.59 3.68,-6.1 7.08,-5.62 3.4,0.48 5.75,3.78 5.25,7.37z"/>
    </g>
    <g>
     <path class="fil13 str57" d="M1092.51 867.78c-0.4,2.84 -2.91,4.83 -5.6,4.44 -2.69,-0.38 -4.55,-2.99 -4.15,-5.83 0.4,-2.84 2.91,-4.82 5.6,-4.44 2.69,0.38 4.55,2.99 4.15,5.83z"/>
     <path id="1" class="fil12" d="M1092.51 867.78c-0.4,2.84 -2.91,4.83 -5.6,4.44 -2.69,-0.38 -4.55,-2.99 -4.15,-5.83 0.4,-2.84 2.91,-4.82 5.6,-4.44 2.69,0.38 4.55,2.99 4.15,5.83z"/>
    </g>
   </g>
   <g>
    <g>
     <path class="fil13 str58" d="M881.07 1149.12c-11.83,11.01 -23.71,10.53 -35.22,7.87 6.14,-0.46 11.96,-0.42 17.62,-2.16 -1.06,-1.14 -2.73,-1.55 -3.79,-2.7 7.04,-0.36 13.76,-3.02 18.26,-7.55 1.81,0.44 2.02,2.94 3.12,4.54z"/>
     <path id="1" class="fil12" d="M881.07 1149.12c-11.83,11.01 -23.71,10.53 -35.22,7.87 6.14,-0.46 11.96,-0.42 17.62,-2.16 -1.06,-1.14 -2.73,-1.55 -3.79,-2.7 7.04,-0.36 13.76,-3.02 18.26,-7.55 1.81,0.44 2.02,2.94 3.12,4.54z"/>
    </g>
    <g>
     <path class="fil13 str59" d="M899.08 1149.86c40.02,-11.02 54.09,35.94 43.33,89.45 -4.87,-6.47 -44.7,-17.86 -57.22,-41.99 -9.8,-18.73 -11.43,-34.87 13.88,-47.46z"/>
     <path id="1" class="fil12" d="M899.08 1149.86c40.02,-11.02 54.09,35.94 43.33,89.45 -4.87,-6.47 -44.7,-17.86 -57.22,-41.99 -9.8,-18.73 -11.43,-34.87 13.88,-47.46z"/>
    </g>
    <g>
     <path class="fil13 str60" d="M945.04 1204.21c-2.97,5.2 -10.12,-9.55 -25.52,-27.41 -2.56,-1.72 -3.22,-1 -2,2.17 11.61,15.1 21.76,31.11 26.38,44 0.58,-6.06 1.08,-12.69 1.14,-18.75z"/>
     <path id="1" class="fil12" d="M945.04 1204.21c-2.97,5.2 -10.12,-9.55 -25.52,-27.41 -2.56,-1.72 -3.22,-1 -2,2.17 11.61,15.1 21.76,31.11 26.38,44 0.58,-6.06 1.08,-12.69 1.14,-18.75z"/>
    </g>
    <g>
     <path class="fil13 str61" d="M915.44 1222.8c5.98,-0.26 -2.81,-11.91 -11.62,-33.79 -0.36,-3.06 0.59,-3.32 2.84,-0.79 8.09,17.24 16.21,34.25 25.55,44.27 -4.89,-2.72 -11.85,-6.06 -16.78,-9.69z"/>
     <path id="1" class="fil12" d="M915.44 1222.8c5.98,-0.26 -2.81,-11.91 -11.62,-33.79 -0.36,-3.06 0.59,-3.32 2.84,-0.79 8.09,17.24 16.21,34.25 25.55,44.27 -4.89,-2.72 -11.85,-6.06 -16.78,-9.69z"/>
    </g>
    <g>
     <path class="fil13 str62" d="M903.34 1214.86c-8.61,-14.6 -13.41,-27.57 -15.62,-40.89 -4.29,-0.34 9.62,37.88 15.62,40.89z"/>
     <path id="1" class="fil12" d="M903.34 1214.86c-8.61,-14.6 -13.41,-27.57 -15.62,-40.89 -4.29,-0.34 9.62,37.88 15.62,40.89z"/>
    </g>
    <g>
     <path class="fil13 str63" d="M944.69 1189.66c-9.02,-14.34 -18.35,-24.55 -29.17,-32.64 1.66,-3.97 29.24,25.92 29.17,32.64z"/>
     <path id="1" class="fil12" d="M944.69 1189.66c-9.02,-14.34 -18.35,-24.55 -29.17,-32.64 1.66,-3.97 29.24,25.92 29.17,32.64z"/>
    </g>
    <g>
     <path class="fil13 str64" d="M901.34 1158.79c-1.94,1.18 -4.5,0.53 -5.71,-1.46 -1.21,-1.99 -0.62,-4.56 1.32,-5.74 1.94,-1.19 4.49,-0.53 5.71,1.45 1.21,1.99 0.62,4.56 -1.32,5.74z"/>
     <path id="1" class="fil12" d="M901.34 1158.79c-1.94,1.18 -4.5,0.53 -5.71,-1.46 -1.21,-1.99 -0.62,-4.56 1.32,-5.74 1.94,-1.19 4.49,-0.53 5.71,1.45 1.21,1.99 0.62,4.56 -1.32,5.74z"/>
    </g>
    <g>
     <path class="fil13 str65" d="M895.25 1174.67c-0.39,-5.81 4.9,-8.92 3.4,-15.99 -8.48,3.65 -5.86,7.85 -3.4,15.99z"/>
     <path id="1" class="fil12" d="M895.25 1174.67c-0.39,-5.81 4.9,-8.92 3.4,-15.99 -8.48,3.65 -5.86,7.85 -3.4,15.99z"/>
    </g>
    <g>
     <path class="fil13 str66" d="M918.09 1161.1c-4.99,-3.01 -10.18,0.27 -15.78,-4.31 7.13,-5.86 9.66,-1.6 15.78,4.31z"/>
     <path id="1" class="fil12" d="M918.09 1161.1c-4.99,-3.01 -10.18,0.27 -15.78,-4.31 7.13,-5.86 9.66,-1.6 15.78,4.31z"/>
    </g>
    <g>
     <path class="fil13 str67" d="M945.21 1102.53c-31.81,8.77 -9.81,40.18 -50.09,42.68 -0.72,-4.32 -1.45,-8.65 -2.18,-12.97 -0.19,0.02 9.52,-42.76 52.28,-29.71z"/>
     <path id="1" class="fil12" d="M945.21 1102.53c-31.81,8.77 -9.81,40.18 -50.09,42.68 -0.72,-4.32 -1.45,-8.65 -2.18,-12.97 -0.19,0.02 9.52,-42.76 52.28,-29.71z"/>
    </g>
    <g>
     <path class="fil13 str68" d="M933.03 1081.36c-31.81,8.77 -9.82,40.18 -50.09,42.68 -0.73,-4.33 -0.82,-7.6 -1.55,-11.93 27.78,-8.62 0.36,-39.03 51.64,-30.75z"/>
     <path id="1" class="fil12" d="M933.03 1081.36c-31.81,8.77 -9.82,40.18 -50.09,42.68 -0.73,-4.33 -0.82,-7.6 -1.55,-11.93 27.78,-8.62 0.36,-39.03 51.64,-30.75z"/>
    </g>
    <g>
     <path class="fil13 str69" d="M898.86 1140.79c15.21,-5.47 19.44,-15.76 22.36,-27.21 -3.22,5.25 -5.86,10.44 -10,14.67 -0.53,-1.46 -0.13,-3.14 -0.66,-4.6 -3.55,6.09 -7.89,10.89 -13.98,12.81 0.92,1.7 1.36,2.63 2.28,4.33z"/>
     <path id="1" class="fil12" d="M898.86 1140.79c15.21,-5.47 19.44,-15.76 22.36,-27.21 -3.22,5.25 -5.86,10.44 -10,14.67 -0.53,-1.46 -0.13,-3.14 -0.66,-4.6 -3.55,6.09 -7.89,10.89 -13.98,12.81 0.92,1.7 1.36,2.63 2.28,4.33z"/>
    </g>
    <g>
     <path class="fil13 str70" d="M886.68 1119.61c15.21,-5.47 19.44,-15.77 22.36,-27.21 -3.22,5.24 -5.86,10.43 -10,14.67 -0.53,-1.46 -0.13,-3.14 -0.66,-4.6 -3.55,6.09 -7.9,10.89 -13.99,12.81 0.92,1.7 1.36,2.63 2.28,4.33z"/>
     <path id="1" class="fil12" d="M886.68 1119.61c15.21,-5.47 19.44,-15.77 22.36,-27.21 -3.22,5.24 -5.86,10.43 -10,14.67 -0.53,-1.46 -0.13,-3.14 -0.66,-4.6 -3.55,6.09 -7.9,10.89 -13.99,12.81 0.92,1.7 1.36,2.63 2.28,4.33z"/>
    </g>
    <g>
     <path class="fil13 str71" d="M825.95 1169.48c22.38,-24.24 39.17,10.34 58.63,-19.28 -3.51,-2.63 -8.16,-12.43 -11.67,-15.05 0.1,-0.16 -38.95,-9.66 -46.96,34.33z"/>
     <path id="1" class="fil12" d="M825.95 1169.48c22.38,-24.24 39.17,10.34 58.63,-19.28 -3.51,-2.63 -8.16,-12.43 -11.67,-15.05 0.1,-0.16 -38.95,-9.66 -46.96,34.33z"/>
    </g>
    <g>
     <path class="fil13 str72" d="M811.7 1151.36c21.4,-21.45 49.31,8.3 61.04,-20.03 -3.51,-2.63 -2.74,-8.22 -6.25,-10.85 -20.4,20.74 -38.63,-18.5 -54.78,30.88z"/>
     <path id="1" class="fil12" d="M811.7 1151.36c21.4,-21.45 49.31,8.3 61.04,-20.03 -3.51,-2.63 -2.74,-8.22 -6.25,-10.85 -20.4,20.74 -38.63,-18.5 -54.78,30.88z"/>
    </g>
    <g>
     <path class="fil13 str73" d="M868.41 1127.17c-11.83,11.01 -24.39,10.58 -35.89,7.93 6.14,-0.46 11.96,-0.42 17.62,-2.16 -1.05,-1.14 -2.73,-1.55 -3.78,-2.7 7.04,-0.36 15.9,-3.61 20.4,-8.14 1.09,1.6 0.57,3.47 1.66,5.07z"/>
     <path id="1" class="fil12" d="M868.41 1127.17c-11.83,11.01 -24.39,10.58 -35.89,7.93 6.14,-0.46 11.96,-0.42 17.62,-2.16 -1.05,-1.14 -2.73,-1.55 -3.78,-2.7 7.04,-0.36 15.9,-3.61 20.4,-8.14 1.09,1.6 0.57,3.47 1.66,5.07z"/>
    </g>
    <g>
     <path class="fil13 str74" d="M902.6 1144.58c1.73,2.8 -15.49,11.86 -17.72,10.79l-18.94 -31.09c-1.76,-7.39 12.86,-15.83 17.72,-10.79l18.94 31.09z"/>
     <path id="1" class="fil12" d="M902.6 1144.58c1.73,2.8 -15.49,11.86 -17.72,10.79l-18.94 -31.09c-1.76,-7.39 12.86,-15.83 17.72,-10.79l18.94 31.09z"/>
    </g>
    <g>
     <path class="fil13 str75" d="M888.54 1140.56c-3.09,1.89 -7.06,1.03 -8.84,-1.9 -1.79,-2.94 -0.73,-6.85 2.36,-8.73 3.09,-1.88 7.05,-1.03 8.84,1.91 1.79,2.94 0.73,6.85 -2.36,8.73z"/>
     <path id="1" class="fil12" d="M888.54 1140.56c-3.09,1.89 -7.06,1.03 -8.84,-1.9 -1.79,-2.94 -0.73,-6.85 2.36,-8.73 3.09,-1.88 7.05,-1.03 8.84,1.91 1.79,2.94 0.73,6.85 -2.36,8.73z"/>
    </g>
    <g>
     <path class="fil13 str76" d="M887.37 1141.28c-2.44,1.49 -5.57,0.82 -6.99,-1.5 -1.42,-2.32 -0.58,-5.41 1.86,-6.91 2.45,-1.49 5.58,-0.82 6.99,1.51 1.42,2.32 0.58,5.41 -1.87,6.9z"/>
     <path id="1" class="fil12" d="M887.37 1141.28c-2.44,1.49 -5.57,0.82 -6.99,-1.5 -1.42,-2.32 -0.58,-5.41 1.86,-6.91 2.45,-1.49 5.58,-0.82 6.99,1.51 1.42,2.32 0.58,5.41 -1.87,6.9z"/>
    </g>
   </g>
   <g>
    <g>
     <path class="fil13 str77" d="M524.33 1151.16c-15.94,-2.65 -22.81,-12.35 -27.73,-23.09 4.11,4.58 7.63,9.22 12.46,12.64 0.26,-1.54 -0.44,-3.11 -0.17,-4.65 4.59,5.36 10.79,9.06 17.13,9.86 0.76,1.71 -1.09,3.4 -1.69,5.24z"/>
     <path id="1" class="fil12" d="M524.33 1151.16c-15.94,-2.65 -22.81,-12.35 -27.73,-23.09 4.11,4.58 7.63,9.22 12.46,12.64 0.26,-1.54 -0.44,-3.11 -0.17,-4.65 4.59,5.36 10.79,9.06 17.13,9.86 0.76,1.71 -1.09,3.4 -1.69,5.24z"/>
    </g>
    <g>
     <path class="fil13 str78" d="M534.73 1165.87c33.16,24.98 4.54,64.79 -44.4,88.92 2.15,-7.8 -13.14,-46.3 -1.66,-70.95 8.86,-19.2 20.65,-30.34 46.07,-17.97z"/>
     <path id="1" class="fil12" d="M534.73 1165.87c33.16,24.98 4.54,64.79 -44.4,88.92 2.15,-7.8 -13.14,-46.3 -1.66,-70.95 8.86,-19.2 20.65,-30.34 46.07,-17.97z"/>
    </g>
    <g>
     <path class="fil13 str79" d="M519.73 1235.46c-5.93,0.82 1.39,-13.85 6.14,-36.95 -0.2,-3.07 -1.18,-3.16 -2.94,-0.26 -4.87,18.41 -11.36,36.22 -18.75,47.75 5.15,-3.24 10.71,-6.89 15.55,-10.53z"/>
     <path id="1" class="fil12" d="M519.73 1235.46c-5.93,0.82 1.39,-13.85 6.14,-36.95 -0.2,-3.07 -1.18,-3.16 -2.94,-0.26 -4.87,18.41 -11.36,36.22 -18.75,47.75 5.15,-3.24 10.71,-6.89 15.55,-10.53z"/>
    </g>
    <g>
     <path class="fil13 str80" d="M486.94 1223.35c3.86,4.58 7.73,-9.5 19.68,-29.83 2.21,-2.15 2.99,-1.56 2.36,1.77 -8.72,16.93 -17.24,33.75 -19.48,47.26 -0.83,-5.53 -2.43,-13.09 -2.56,-19.2z"/>
     <path id="1" class="fil12" d="M486.94 1223.35c3.86,4.58 7.73,-9.5 19.68,-29.83 2.21,-2.15 2.99,-1.56 2.36,1.77 -8.72,16.93 -17.24,33.75 -19.48,47.26 -0.83,-5.53 -2.43,-13.09 -2.56,-19.2z"/>
    </g>
    <g>
     <path class="fil13 str81" d="M485.84 1208.92c6.31,-15.73 13.65,-27.45 22.86,-37.33 -2.35,-3.61 -24.13,30.74 -22.86,37.33z"/>
     <path id="1" class="fil12" d="M485.84 1208.92c6.31,-15.73 13.65,-27.45 22.86,-37.33 -2.35,-3.61 -24.13,30.74 -22.86,37.33z"/>
    </g>
    <g>
     <path class="fil13 str82" d="M531.05 1226.3c5.85,-15.91 8.25,-29.52 8.04,-43.03 4.16,-1.11 -2.68,38.98 -8.04,43.03z"/>
     <path id="1" class="fil12" d="M531.05 1226.3c5.85,-15.91 8.25,-29.52 8.04,-43.03 4.16,-1.11 -2.68,38.98 -8.04,43.03z"/>
    </g>
    <g>
     <path class="fil13 str83" d="M529.04 1173.12c-2.12,-0.82 -3.16,-3.24 -2.33,-5.41 0.83,-2.17 3.23,-3.27 5.36,-2.46 2.12,0.82 3.16,3.24 2.33,5.41 -0.83,2.17 -3.23,3.27 -5.36,2.46z"/>
     <path id="1" class="fil12" d="M529.04 1173.12c-2.12,-0.82 -3.16,-3.24 -2.33,-5.41 0.83,-2.17 3.23,-3.27 5.36,-2.46 2.12,0.82 3.16,3.24 2.33,5.41 -0.83,2.17 -3.23,3.27 -5.36,2.46z"/>
    </g>
    <g>
     <path class="fil13 str84" d="M512.74 1177.98c4.37,-3.86 10.06,-1.56 14.75,-7.07 -8.06,-4.49 -9.8,0.15 -14.75,7.07z"/>
     <path id="1" class="fil12" d="M512.74 1177.98c4.37,-3.86 10.06,-1.56 14.75,-7.07 -8.06,-4.49 -9.8,0.15 -14.75,7.07z"/>
    </g>
    <g>
     <path class="fil13 str85" d="M537.44 1187.79c-0.66,-5.79 -6.43,-7.9 -6.21,-15.13 8.99,2.07 7.17,6.68 6.21,15.13z"/>
     <path id="1" class="fil12" d="M537.44 1187.79c-0.66,-5.79 -6.43,-7.9 -6.21,-15.13 8.99,2.07 7.17,6.68 6.21,15.13z"/>
    </g>
    <g>
     <path class="fil13 str86" d="M600.38 1173.54c-26.36,-19.84 -37.82,16.75 -64.38,-13.63 2.98,-3.22 5.96,-6.43 8.94,-9.64 -0.13,-0.14 39.68,-18.56 55.44,23.28z"/>
     <path id="1" class="fil12" d="M600.38 1173.54c-26.36,-19.84 -37.82,16.75 -64.38,-13.63 2.98,-3.22 5.96,-6.43 8.94,-9.64 -0.13,-0.14 39.68,-18.56 55.44,23.28z"/>
    </g>
    <g>
     <path class="fil13 str87" d="M609.72 1150.96c-26.37,-19.84 -37.82,16.75 -64.38,-13.63 2.98,-3.22 5.52,-5.29 8.5,-8.51 23.78,16.74 31.14,-23.55 55.88,22.14z"/>
     <path id="1" class="fil12" d="M609.72 1150.96c-26.37,-19.84 -37.82,16.75 -64.38,-13.63 2.98,-3.22 5.52,-5.29 8.5,-8.51 23.78,16.74 31.14,-23.55 55.88,22.14z"/>
    </g>
    <g>
     <path class="fil13 str88" d="M541.79 1160.16c13.61,8.71 24.35,5.78 35.2,1.11 -6.12,0.65 -11.84,1.73 -17.72,1.03 0.83,-1.31 2.41,-2.01 3.24,-3.33 -7,0.91 -13.45,0.39 -18.68,-3.26 -0.79,1.77 -1.25,2.68 -2.04,4.45z"/>
     <path id="1" class="fil12" d="M541.79 1160.16c13.61,8.71 24.35,5.78 35.2,1.11 -6.12,0.65 -11.84,1.73 -17.72,1.03 0.83,-1.31 2.41,-2.01 3.24,-3.33 -7,0.91 -13.45,0.39 -18.68,-3.26 -0.79,1.77 -1.25,2.68 -2.04,4.45z"/>
    </g>
    <g>
     <path class="fil13 str89" d="M551.12 1137.59c13.61,8.71 24.35,5.78 35.2,1.11 -6.12,0.65 -11.84,1.73 -17.72,1.03 0.83,-1.31 2.41,-2.01 3.24,-3.33 -7,0.91 -13.44,0.39 -18.68,-3.26 -0.79,1.77 -1.25,2.68 -2.04,4.45z"/>
     <path id="1" class="fil12" d="M551.12 1137.59c13.61,8.71 24.35,5.78 35.2,1.11 -6.12,0.65 -11.84,1.73 -17.72,1.03 0.83,-1.31 2.41,-2.01 3.24,-3.33 -7,0.91 -13.44,0.39 -18.68,-3.26 -0.79,1.77 -1.25,2.68 -2.04,4.45z"/>
    </g>
    <g>
     <path class="fil13 str90" d="M474.56 1119.92c32.87,2.94 15.72,37.33 51.06,34.68 -0.06,-4.38 4.86,-14.05 4.8,-18.43 0.19,-0.01 -16.13,-36.75 -55.86,-16.24z"/>
     <path id="1" class="fil12" d="M474.56 1119.92c32.87,2.94 15.72,37.33 51.06,34.68 -0.06,-4.38 4.86,-14.05 4.8,-18.43 0.19,-0.01 -16.13,-36.75 -55.86,-16.24z"/>
    </g>
    <g>
     <path class="fil13 str91" d="M480.22 1097.57c30.05,3.86 23.52,44.13 53.11,36.12 -0.05,-4.38 4.84,-7.19 4.78,-11.57 -28.87,-3.5 -8.92,-41.89 -57.89,-24.55z"/>
     <path id="1" class="fil12" d="M480.22 1097.57c30.05,3.86 23.52,44.13 53.11,36.12 -0.05,-4.38 4.84,-7.19 4.78,-11.57 -28.87,-3.5 -8.92,-41.89 -57.89,-24.55z"/>
    </g>
    <g>
     <path class="fil13 str92" d="M533.99 1127.73c-15.94,-2.65 -23.27,-12.86 -28.19,-23.6 4.11,4.58 7.63,9.22 12.46,12.64 0.26,-1.53 -0.44,-3.11 -0.17,-4.64 4.59,5.36 12.57,10.39 18.9,11.19 -0.6,1.84 -2.4,2.57 -3,4.41z"/>
     <path id="1" class="fil12" d="M533.99 1127.73c-15.94,-2.65 -23.27,-12.86 -28.19,-23.6 4.11,4.58 7.63,9.22 12.46,12.64 0.26,-1.53 -0.44,-3.11 -0.17,-4.64 4.59,5.36 12.57,10.39 18.9,11.19 -0.6,1.84 -2.4,2.57 -3,4.41z"/>
    </g>
    <g>
     <path class="fil13 str93" d="M541.06 1165.44c-1.17,3.08 -18.85,-5.03 -19.36,-7.45l13.06 -33.98c4.78,-5.91 20.39,0.53 19.36,7.45l-13.06 33.98z"/>
     <path id="1" class="fil12" d="M541.06 1165.44c-1.17,3.08 -18.85,-5.03 -19.36,-7.45l13.06 -33.98c4.78,-5.91 20.39,0.53 19.36,7.45l-13.06 33.98z"/>
    </g>
    <g>
     <path class="fil13 str94" d="M535.67 1151.85c-3.38,-1.3 -5.12,-4.95 -3.89,-8.16 1.24,-3.21 4.98,-4.76 8.35,-3.46 3.38,1.3 5.12,4.96 3.89,8.17 -1.23,3.21 -4.97,4.76 -8.35,3.45z"/>
     <path id="1" class="fil12" d="M535.67 1151.85c-3.38,-1.3 -5.12,-4.95 -3.89,-8.16 1.24,-3.21 4.98,-4.76 8.35,-3.46 3.38,1.3 5.12,4.96 3.89,8.17 -1.23,3.21 -4.97,4.76 -8.35,3.45z"/>
    </g>
    <g>
     <path class="fil13 str95" d="M534.39 1151.36c-2.68,-1.03 -4.05,-3.92 -3.08,-6.45 0.98,-2.54 3.93,-3.76 6.61,-2.73 2.68,1.03 4.05,3.92 3.07,6.45 -0.98,2.54 -3.93,3.76 -6.6,2.73z"/>
     <path id="1" class="fil12" d="M534.39 1151.36c-2.68,-1.03 -4.05,-3.92 -3.08,-6.45 0.98,-2.54 3.93,-3.76 6.61,-2.73 2.68,1.03 4.05,3.92 3.07,6.45 -0.98,2.54 -3.93,3.76 -6.6,2.73z"/>
    </g>
   </g>
   <g>
    <g>
     <path class="fil13 str96" d="M303.46 862.11c-7.35,-14.39 -3.64,-25.68 2.06,-36.02 -1.24,6.03 -2.86,11.62 -2.75,17.53 1.39,-0.7 2.24,-2.2 3.63,-2.9 -1.58,6.87 -0.86,14.06 2.27,19.63 -0.92,1.63 -3.38,1.15 -5.21,1.76z"/>
     <path id="1" class="fil12" d="M303.46 862.11c-7.35,-14.39 -3.64,-25.68 2.06,-36.02 -1.24,6.03 -2.86,11.62 -2.75,17.53 1.39,-0.7 2.24,-2.2 3.63,-2.9 -1.58,6.87 -0.86,14.06 2.27,19.63 -0.92,1.63 -3.38,1.15 -5.21,1.76z"/>
    </g>
    <g>
     <path class="fil13 str97" d="M297.82 879.23c-0.36,41.51 -49.38,42.18 -97.89,17.19 7.55,-2.91 29.41,-38.1 56.05,-43.54 20.7,-4.3 36.67,-1.45 41.85,26.35z"/>
     <path id="1" class="fil12" d="M297.82 879.23c-0.36,41.51 -49.38,42.18 -97.89,17.19 7.55,-2.91 29.41,-38.1 56.05,-43.54 20.7,-4.3 36.67,-1.45 41.85,26.35z"/>
    </g>
    <g>
     <path class="fil13 str98" d="M232.96 908.55c-4.18,-4.28 11.96,-7.12 33.36,-17.05 2.35,-1.99 1.84,-2.83 -1.54,-2.52 -17.7,7.03 -35.87,12.41 -49.54,13.33 5.67,2.22 11.91,4.51 17.72,6.24z"/>
     <path id="1" class="fil12" d="M232.96 908.55c-4.18,-4.28 11.96,-7.12 33.36,-17.05 2.35,-1.99 1.84,-2.83 -1.54,-2.52 -17.7,7.03 -35.87,12.41 -49.54,13.33 5.67,2.22 11.91,4.51 17.72,6.24z"/>
    </g>
    <g>
     <path class="fil13 str99" d="M223.19 875c-1.39,5.83 12.23,0.56 35.68,-1.92 3.04,0.5 3.03,1.48 -0.02,2.95 -18.8,3.06 -37.38,6.22 -49.58,12.46 3.95,-3.95 9.07,-9.74 13.91,-13.48z"/>
     <path id="1" class="fil12" d="M223.19 875c-1.39,5.83 12.23,0.56 35.68,-1.92 3.04,0.5 3.03,1.48 -0.02,2.95 -18.8,3.06 -37.38,6.22 -49.58,12.46 3.95,-3.95 9.07,-9.74 13.91,-13.48z"/>
    </g>
    <g>
     <path class="fil13 str100" d="M234.14 865.53c16.4,-4.28 30.18,-5.35 43.61,-3.84 1.5,-4.03 -39.06,-1.11 -43.61,3.84z"/>
     <path id="1" class="fil12" d="M234.14 865.53c16.4,-4.28 30.18,-5.35 43.61,-3.84 1.5,-4.03 -39.06,-1.11 -43.61,3.84z"/>
    </g>
    <g>
     <path class="fil13 str101" d="M247.05 912.2c16.27,-4.75 28.64,-10.92 39.38,-19.13 3.36,2.68 -32.94,21.03 -39.38,19.13z"/>
     <path id="1" class="fil12" d="M247.05 912.2c16.27,-4.75 28.64,-10.92 39.38,-19.13 3.36,2.68 -32.94,21.03 -39.38,19.13z"/>
    </g>
    <g>
     <path class="fil13 str102" d="M288.62 878.96c-0.61,-2.19 0.72,-4.47 2.96,-5.09 2.24,-0.62 4.55,0.65 5.16,2.84 0.61,2.19 -0.72,4.47 -2.96,5.09 -2.25,0.62 -4.55,-0.65 -5.16,-2.84z"/>
     <path id="1" class="fil12" d="M288.62 878.96c-0.61,-2.19 0.72,-4.47 2.96,-5.09 2.24,-0.62 4.55,0.65 5.16,2.84 0.61,2.19 -0.72,4.47 -2.96,5.09 -2.25,0.62 -4.55,-0.65 -5.16,-2.84z"/>
    </g>
    <g>
     <path class="fil13 str103" d="M275 868.75c5.7,1.22 7.24,7.16 14.46,7.65 -1.19,-9.15 -5.95,-7.78 -14.46,-7.65z"/>
     <path id="1" class="fil12" d="M275 868.75c5.7,1.22 7.24,7.16 14.46,7.65 -1.19,-9.15 -5.95,-7.78 -14.46,-7.65z"/>
    </g>
    <g>
     <path class="fil13 str104" d="M281.81 894.43c4.26,-3.97 2.53,-9.86 8.46,-13.99 3.69,8.46 -1.1,9.74 -8.46,13.99z"/>
     <path id="1" class="fil12" d="M281.81 894.43c4.26,-3.97 2.53,-9.86 8.46,-13.99 3.69,8.46 -1.1,9.74 -8.46,13.99z"/>
    </g>
    <g>
     <path class="fil13 str105" d="M330.71 936.55c0.27,-32.99 -35.96,-20.44 -27.33,-59.86 4.36,0.48 8.71,0.97 13.07,1.45 0.03,-0.19 38.52,20.86 14.26,58.41z"/>
     <path id="1" class="fil12" d="M330.71 936.55c0.27,-32.99 -35.96,-20.44 -27.33,-59.86 4.36,0.48 8.71,0.97 13.07,1.45 0.03,-0.19 38.52,20.86 14.26,58.41z"/>
    </g>
    <g>
     <path class="fil13 str106" d="M354.41 930.63c0.26,-33 -35.96,-20.44 -27.33,-59.87 4.36,0.48 7.53,1.29 11.89,1.77 0.69,29.08 37.45,11.03 15.44,58.09z"/>
     <path id="1" class="fil12" d="M354.41 930.63c0.26,-33 -35.96,-20.44 -27.33,-59.87 4.36,0.48 7.53,1.29 11.89,1.77 0.69,29.08 37.45,11.03 15.44,58.09z"/>
    </g>
    <g>
     <path class="fil13 str107" d="M306.61 881.5c1.09,16.13 9.84,23.02 20.05,28.96 -4.16,-4.53 -8.43,-8.49 -11.37,-13.63 1.55,-0.11 3.05,0.73 4.61,0.62 -4.89,-5.09 -8.31,-10.57 -8.5,-16.96 -1.89,0.41 -2.9,0.59 -4.79,1.01z"/>
     <path id="1" class="fil12" d="M306.61 881.5c1.09,16.13 9.84,23.02 20.05,28.96 -4.16,-4.53 -8.43,-8.49 -11.37,-13.63 1.55,-0.11 3.05,0.73 4.61,0.62 -4.89,-5.09 -8.31,-10.57 -8.5,-16.96 -1.89,0.41 -2.9,0.59 -4.79,1.01z"/>
    </g>
    <g>
     <path class="fil13 str108" d="M330.31 875.57c1.09,16.13 9.84,23.02 20.05,28.96 -4.16,-4.53 -8.43,-8.49 -11.37,-13.63 1.55,-0.11 3.05,0.74 4.61,0.62 -4.89,-5.09 -8.31,-10.57 -8.5,-16.96 -1.89,0.42 -2.9,0.59 -4.79,1.01z"/>
     <path id="1" class="fil12" d="M330.31 875.57c1.09,16.13 9.84,23.02 20.05,28.96 -4.16,-4.53 -8.43,-8.49 -11.37,-13.63 1.55,-0.11 3.05,0.74 4.61,0.62 -4.89,-5.09 -8.31,-10.57 -8.5,-16.96 -1.89,0.42 -2.9,0.59 -4.79,1.01z"/>
    </g>
    <g>
     <path class="fil13 str109" d="M298.97 803.52c17.19,28.16 -20.66,34.84 2.5,61.67 3.49,-2.65 14.18,-4.45 17.67,-7.11 0.12,0.15 19.95,-34.82 -20.17,-54.56z"/>
     <path id="1" class="fil12" d="M298.97 803.52c17.19,28.16 -20.66,34.84 2.5,61.67 3.49,-2.65 14.18,-4.45 17.67,-7.11 0.12,0.15 19.95,-34.82 -20.17,-54.56z"/>
    </g>
    <g>
     <path class="fil13 str110" d="M320.3 794.77c14.78,26.45 -21.48,45.16 2.56,64.19 3.49,-2.65 8.66,-0.39 12.15,-3.04 -14.36,-25.29 28.36,-32.09 -14.7,-61.14z"/>
     <path id="1" class="fil12" d="M320.3 794.77c14.78,26.45 -21.48,45.16 2.56,64.19 3.49,-2.65 8.66,-0.39 12.15,-3.04 -14.36,-25.29 28.36,-32.09 -14.7,-61.14z"/>
    </g>
    <g>
     <path class="fil13 str111" d="M328.04 855.94c-7.35,-14.39 -3.51,-26.35 2.2,-36.7 -1.24,6.03 -2.87,11.62 -2.75,17.54 1.39,-0.7 2.24,-2.2 3.63,-2.9 -1.58,6.87 -0.88,16.28 2.25,21.85 -1.84,0.62 -3.49,-0.41 -5.33,0.21z"/>
     <path id="1" class="fil12" d="M328.04 855.94c-7.35,-14.39 -3.51,-26.35 2.2,-36.7 -1.24,6.03 -2.87,11.62 -2.75,17.54 1.39,-0.7 2.24,-2.2 3.63,-2.9 -1.58,6.87 -0.88,16.28 2.25,21.85 -1.84,0.62 -3.49,-0.41 -5.33,0.21z"/>
    </g>
    <g>
     <path class="fil13 str112" d="M301.93 884.06c-3.17,0.89 -7.17,-18.15 -5.53,-20l35.08 -9.71c7.59,0.33 11.7,16.71 5.53,20l-35.08 9.71z"/>
     <path id="1" class="fil12" d="M301.93 884.06c-3.17,0.89 -7.17,-18.15 -5.53,-20l35.08 -9.71c7.59,0.33 11.7,16.71 5.53,20l-35.08 9.71z"/>
    </g>
    <g>
     <path class="fil13 str113" d="M309.64 871.63c-0.97,-3.49 0.94,-7.06 4.25,-7.98 3.31,-0.92 6.78,1.17 7.75,4.66 0.97,3.49 -0.93,7.06 -4.25,7.98 -3.32,0.92 -6.79,-1.17 -7.75,-4.66z"/>
     <path id="1" class="fil12" d="M309.64 871.63c-0.97,-3.49 0.94,-7.06 4.25,-7.98 3.31,-0.92 6.78,1.17 7.75,4.66 0.97,3.49 -0.93,7.06 -4.25,7.98 -3.32,0.92 -6.79,-1.17 -7.75,-4.66z"/>
    </g>
    <g>
     <path class="fil13 str114" d="M309.28 870.31c-0.77,-2.76 0.74,-5.59 3.36,-6.31 2.62,-0.72 5.36,0.93 6.13,3.69 0.76,2.76 -0.74,5.59 -3.36,6.31 -2.62,0.72 -5.36,-0.93 -6.13,-3.69z"/>
     <path id="1" class="fil12" d="M309.28 870.31c-0.77,-2.76 0.74,-5.59 3.36,-6.31 2.62,-0.72 5.36,0.93 6.13,3.69 0.76,2.76 -0.74,5.59 -3.36,6.31 -2.62,0.72 -5.36,-0.93 -6.13,-3.69z"/>
    </g>
   </g>
   <g>
    <g>
     <path class="fil13 str115" d="M403.85 513.26c7.17,-14.49 18.44,-18.24 30.15,-19.83 -5.57,2.6 -11.03,4.63 -15.72,8.25 1.39,0.7 3.1,0.48 4.49,1.18 -6.46,2.83 -11.8,7.7 -14.4,13.53 -1.86,0.23 -2.94,-2.03 -4.52,-3.14z"/>
     <path id="1" class="fil12" d="M403.85 513.26c7.17,-14.49 18.44,-18.24 30.15,-19.83 -5.57,2.6 -11.03,4.63 -15.72,8.25 1.39,0.7 3.1,0.48 4.49,1.18 -6.46,2.83 -11.8,7.7 -14.4,13.53 -1.86,0.23 -2.94,-2.03 -4.52,-3.14z"/>
    </g>
    <g>
     <path class="fil13 str116" d="M386.75 518.94c-33.53,24.48 -63.32,-14.47 -72.19,-68.31 6.84,4.33 48.12,0.88 68.37,19.01 15.8,14.05 23.04,28.57 3.82,49.3z"/>
     <path id="1" class="fil12" d="M386.75 518.94c-33.53,24.48 -63.32,-14.47 -72.19,-68.31 6.84,4.33 48.12,0.88 68.37,19.01 15.8,14.05 23.04,28.57 3.82,49.3z"/>
    </g>
    <g>
     <path class="fil13 str117" d="M324.53 484.38c0.94,-5.91 12.84,5.35 33.57,16.6 3,0.7 3.36,-0.21 1.11,-2.73 -16.2,-10.01 -31.36,-21.39 -40.25,-31.81 1.6,5.87 3.48,12.25 5.57,17.94z"/>
     <path id="1" class="fil12" d="M324.53 484.38c0.94,-5.91 12.84,5.35 33.57,16.6 3,0.7 3.36,-0.21 1.11,-2.73 -16.2,-10.01 -31.36,-21.39 -40.25,-31.81 1.6,5.87 3.48,12.25 5.57,17.94z"/>
    </g>
    <g>
     <path class="fil13 str118" d="M345.63 456.52c-5.5,2.36 6.84,10.15 22.83,27.49 1.42,2.74 0.62,3.31 -2.38,1.75 -13.67,-13.26 -27.29,-26.3 -39.57,-32.36 5.53,0.82 13.23,1.47 19.12,3.12z"/>
     <path id="1" class="fil12" d="M345.63 456.52c-5.5,2.36 6.84,10.15 22.83,27.49 1.42,2.74 0.62,3.31 -2.38,1.75 -13.67,-13.26 -27.29,-26.3 -39.57,-32.36 5.53,0.82 13.23,1.47 19.12,3.12z"/>
    </g>
    <g>
     <path class="fil13 str119" d="M359.76 459.66c13.21,10.61 22.3,21.03 29.09,32.71 4.13,-1.2 -22.41,-32.02 -29.09,-32.71z"/>
     <path id="1" class="fil12" d="M359.76 459.66c13.21,10.61 22.3,21.03 29.09,32.71 4.13,-1.2 -22.41,-32.02 -29.09,-32.71z"/>
    </g>
    <g>
     <path class="fil13 str120" d="M330.01 497.87c13.52,10.21 25.85,16.47 38.84,20.19 -0.15,4.3 -36.53,-13.89 -38.84,-20.19z"/>
     <path id="1" class="fil12" d="M330.01 497.87c13.52,10.21 25.85,16.47 38.84,20.19 -0.15,4.3 -36.53,-13.89 -38.84,-20.19z"/>
    </g>
    <g>
     <path class="fil13 str121" d="M381.47 511.39c1.4,-1.79 4.02,-2.09 5.85,-0.66 1.84,1.43 2.2,4.04 0.8,5.83 -1.39,1.8 -4.02,2.09 -5.85,0.66 -1.84,-1.43 -2.19,-4.04 -0.8,-5.84z"/>
     <path id="1" class="fil12" d="M381.47 511.39c1.4,-1.79 4.02,-2.09 5.85,-0.66 1.84,1.43 2.2,4.04 0.8,5.83 -1.39,1.8 -4.02,2.09 -5.85,0.66 -1.84,-1.43 -2.19,-4.04 -0.8,-5.84z"/>
    </g>
    <g>
     <path class="fil13 str122" d="M381.55 494.38c2.42,5.3 -1.43,10.08 2.48,16.17 6.63,-6.41 2.69,-9.42 -2.48,-16.17z"/>
     <path id="1" class="fil12" d="M381.55 494.38c2.42,5.3 -1.43,10.08 2.48,16.17 6.63,-6.41 2.69,-9.42 -2.48,-16.17z"/>
    </g>
    <g>
     <path class="fil13 str123" d="M365 515.16c5.73,1.05 9.42,-3.86 16.28,-1.55 -4.59,8 -8.47,4.92 -16.28,1.55z"/>
     <path id="1" class="fil12" d="M365 515.16c5.73,1.05 9.42,-3.86 16.28,-1.55 -4.59,8 -8.47,4.92 -16.28,1.55z"/>
    </g>
    <g>
     <path class="fil13 str124" d="M360.36 579.54c26.64,-19.47 -5.05,-41.05 31.74,-57.65 2.21,3.78 4.42,7.57 6.64,11.35 0.16,-0.09 6.24,43.37 -38.37,46.3z"/>
     <path id="1" class="fil12" d="M360.36 579.54c26.64,-19.47 -5.05,-41.05 31.74,-57.65 2.21,3.78 4.42,7.57 6.64,11.35 0.16,-0.09 6.24,43.37 -38.37,46.3z"/>
    </g>
    <g>
     <path class="fil13 str125" d="M379.25 595.03c26.64,-19.47 -5.05,-41.05 31.74,-57.65 2.21,3.78 3.46,6.82 5.67,10.6 -22.93,17.9 13.49,36.64 -37.41,47.05z"/>
     <path id="1" class="fil12" d="M379.25 595.03c26.64,-19.47 -5.05,-41.05 31.74,-57.65 2.21,3.78 3.46,6.82 5.67,10.6 -22.93,17.9 13.49,36.64 -37.41,47.05z"/>
    </g>
    <g>
     <path class="fil13 str126" d="M390.17 527.34c-12.29,10.5 -12.61,21.63 -11.28,33.37 1.16,-6.04 1.79,-11.84 4.15,-17.26 1.02,1.18 1.23,2.89 2.25,4.07 1.16,-6.96 3.53,-12.98 8.54,-16.93 -1.46,-1.27 -2.2,-1.97 -3.66,-3.25z"/>
     <path id="1" class="fil12" d="M390.17 527.34c-12.29,10.5 -12.61,21.63 -11.28,33.37 1.16,-6.04 1.79,-11.84 4.15,-17.26 1.02,1.18 1.23,2.89 2.25,4.07 1.16,-6.96 3.53,-12.98 8.54,-16.93 -1.46,-1.27 -2.2,-1.97 -3.66,-3.25z"/>
    </g>
    <g>
     <path class="fil13 str127" d="M409.06 542.83c-12.29,10.5 -12.61,21.63 -11.28,33.36 1.16,-6.04 1.79,-11.83 4.16,-17.26 1.02,1.18 1.23,2.89 2.25,4.07 1.16,-6.96 3.53,-12.98 8.54,-16.93 -1.46,-1.27 -2.2,-1.97 -3.66,-3.25z"/>
     <path id="1" class="fil12" d="M409.06 542.83c-12.29,10.5 -12.61,21.63 -11.28,33.36 1.16,-6.04 1.79,-11.83 4.16,-17.26 1.02,1.18 1.23,2.89 2.25,4.07 1.16,-6.96 3.53,-12.98 8.54,-16.93 -1.46,-1.27 -2.2,-1.97 -3.66,-3.25z"/>
    </g>
    <g>
     <path class="fil13 str128" d="M448.19 474.7c-12.35,30.6 -40.29,4.2 -48.01,38.79 4.21,1.22 12.03,8.73 16.24,9.95 -0.04,0.18 39.85,-4.76 31.76,-48.74z"/>
     <path id="1" class="fil12" d="M448.19 474.7c-12.35,30.6 -40.29,4.2 -48.01,38.79 4.21,1.22 12.03,8.73 16.24,9.95 -0.04,0.18 39.85,-4.76 31.76,-48.74z"/>
    </g>
    <g>
     <path class="fil13 str129" d="M467.94 486.61c-12.41,27.64 -49.06,9.69 -49.99,40.34 4.21,1.22 5.47,6.71 9.69,7.93 11.74,-26.61 42.68,3.63 40.3,-48.27z"/>
     <path id="1" class="fil12" d="M467.94 486.61c-12.41,27.64 -49.06,9.69 -49.99,40.34 4.21,1.22 5.47,6.71 9.69,7.93 11.74,-26.61 42.68,3.63 40.3,-48.27z"/>
    </g>
    <g>
     <path class="fil13 str130" d="M423.47 529.3c7.17,-14.49 19.06,-18.53 30.77,-20.12 -5.58,2.6 -11.04,4.63 -15.72,8.25 1.39,0.7 3.1,0.48 4.49,1.18 -6.46,2.83 -13.59,9.01 -16.2,14.84 -1.59,-1.11 -1.75,-3.04 -3.35,-4.15z"/>
     <path id="1" class="fil12" d="M423.47 529.3c7.17,-14.49 19.06,-18.53 30.77,-20.12 -5.58,2.6 -11.04,4.63 -15.72,8.25 1.39,0.7 3.1,0.48 4.49,1.18 -6.46,2.83 -13.59,9.01 -16.2,14.84 -1.59,-1.11 -1.75,-3.04 -3.35,-4.15z"/>
    </g>
    <g>
     <path class="fil13 str131" d="M385.33 525.12c-2.61,-2.01 10.28,-16.58 12.75,-16.37l28.72 22.37c4.27,6.29 -6.42,19.36 -12.74,16.37l-28.72 -22.37z"/>
     <path id="1" class="fil12" d="M385.33 525.12c-2.61,-2.01 10.28,-16.58 12.75,-16.37l28.72 22.37c4.27,6.29 -6.42,19.36 -12.74,16.37l-28.72 -22.37z"/>
    </g>
    <g>
     <path class="fil13 str132" d="M399.9 523.9c2.22,-2.86 6.23,-3.46 8.94,-1.35 2.71,2.11 3.11,6.14 0.88,9 -2.23,2.86 -6.23,3.46 -8.95,1.35 -2.71,-2.11 -3.1,-6.14 -0.88,-9z"/>
     <path id="1" class="fil12" d="M399.9 523.9c2.22,-2.86 6.23,-3.46 8.94,-1.35 2.71,2.11 3.11,6.14 0.88,9 -2.23,2.86 -6.23,3.46 -8.95,1.35 -2.71,-2.11 -3.1,-6.14 -0.88,-9z"/>
    </g>
    <g>
     <path class="fil13 str133" d="M400.74 522.82c1.76,-2.26 4.93,-2.74 7.07,-1.07 2.15,1.67 2.46,4.86 0.7,7.12 -1.76,2.26 -4.92,2.74 -7.07,1.07 -2.15,-1.67 -2.46,-4.85 -0.7,-7.12z"/>
     <path id="1" class="fil12" d="M400.74 522.82c1.76,-2.26 4.93,-2.74 7.07,-1.07 2.15,1.67 2.46,4.86 0.7,7.12 -1.76,2.26 -4.92,2.74 -7.07,1.07 -2.15,-1.67 -2.46,-4.85 -0.7,-7.12z"/>
    </g>
   </g>
  </g>
  <polygon class="fil14" points="1736.12,374.21 1736.12,539.41 1712.93,539.41 1712.93,374.21 "/>
  <path id="1" class="fil14" d="M1776.99 539.41l0 -165.21 23.19 0 0 165.21 -23.19 0zm11.6 0l0 -22.03 94.55 0 0 22.03 -94.55 0z"/>
  <path id="2" class="fil14" d="M1961.51 541.12c-18.42,0 -32.65,-5.35 -42.78,-16.09 -10.12,-10.7 -15.16,-25.83 -15.16,-45.37l0 -105.45 23.15 0 0 106.22c0,12.06 3.06,21.37 9.11,27.96 6.05,6.6 14.62,9.89 25.68,9.89 11.13,0 19.74,-3.3 25.83,-9.89 6.13,-6.59 9.15,-15.9 9.15,-27.96l0 -106.22 23.19 0 0 105.45c0,19.54 -5.08,34.67 -15.24,45.37 -10.12,10.74 -24.47,16.09 -42.93,16.09z"/>
  <path id="3" class="fil14" d="M2103.41 541.12c-8.03,0 -15.59,-0.77 -22.69,-2.29 -7.06,-1.51 -13.69,-3.76 -19.89,-6.79 -6.17,-3.06 -11.95,-6.82 -17.3,-11.36l0 0 14.43 -17.73 0 0c6.29,5.43 13.22,9.54 20.79,12.26 7.56,2.71 15.78,4.07 24.66,4.07 11.94,0 21.21,-2.21 27.8,-6.67 6.6,-4.5 9.89,-10.74 9.89,-18.77l0 -0.12c0,-6.28 -1.67,-11.09 -5,-14.43 -3.34,-3.33 -7.68,-5.82 -13.11,-7.44 -5.43,-1.63 -11.32,-2.95 -17.8,-4.03 -6.2,-1.05 -12.45,-2.29 -18.77,-3.72 -6.32,-1.44 -12.14,-3.72 -17.45,-6.79 -5.31,-3.06 -9.58,-7.48 -12.8,-13.22 -3.22,-5.74 -4.81,-13.46 -4.81,-23.07l0 -0.12c0,-15.36 5.12,-27.26 15.32,-35.72 10.24,-8.46 24.66,-12.68 43.31,-12.68 8.84,0 17.53,1.44 25.99,4.27 8.49,2.83 16.75,7.17 24.78,13.03l0 0 -13.18 18.38 0 0c-6.29,-4.69 -12.53,-8.18 -18.81,-10.43 -6.24,-2.29 -12.49,-3.41 -18.77,-3.41 -11.29,0 -20.09,2.25 -26.33,6.75 -6.24,4.5 -9.34,10.9 -9.34,19.16l0 0.12c0,6.2 1.78,10.93 5.43,14.19 3.65,3.26 8.41,5.66 14.27,7.21 5.86,1.55 12.17,3.03 18.92,4.38 6.05,1.2 12.1,2.68 18.15,4.38 6.08,1.67 11.6,4.15 16.56,7.37 4.96,3.22 8.92,7.64 11.91,13.22 2.99,5.62 4.5,12.91 4.5,21.95l0 0.23c0,15.2 -5.31,26.99 -15.9,35.33 -10.62,8.34 -25.52,12.48 -44.75,12.48z"/>
  <path id="4" class="fil14" d="M2220.99 539.41l0 -151.67 23.15 0 0 151.67 -23.15 0zm-46.73 -143.14l0 -22.07 116.58 0 0 22.07 -116.58 0z"/>
  <path id="5" class="fil14" d="M2323.68 469.53l0 -22.02 56.35 0c6.75,0 12.17,-2.37 16.25,-7.06 4.11,-4.69 6.13,-10.9 6.13,-18.61l0 0c0,-7.72 -2.01,-13.96 -6.13,-18.65 -4.07,-4.69 -9.5,-7.02 -16.25,-7.02l-56.35 0 0 -22.07 55.46 0c9.62,0 18.03,2.01 25.21,5.97 7.22,3.99 12.8,9.54 16.76,16.64 3.99,7.13 5.97,15.51 5.97,25.13l0 0c0,9.54 -2.01,17.88 -6.01,25.06 -4.03,7.13 -9.62,12.72 -16.75,16.67 -7.17,3.99 -15.55,5.97 -25.17,5.97l-55.46 0zm-10.12 69.88l0 -165.32 23.19 0 0 165.32 -23.19 0zm92.96 0l-37.85 -75 23.07 -5.2 42.27 80.2 -27.49 0z"/>
  <path id="6" class="fil14" d="M2465.23 539.41l0 -165.21 23.19 0 0 165.21 -23.19 0zm11.24 0l0 -22.03 94.9 0 0 22.03 -94.9 0zm0 -71l0 -22.03 82.37 0 0 22.03 -82.37 0zm0 -72.14l0 -22.07 94.9 0 0 22.07 -94.9 0z"/>
  <path id="7" class="fil14" d="M2720.87 541.12c-11.52,0 -21.6,-2.56 -30.21,-7.68 -8.65,-5.12 -15.36,-12.29 -20.13,-21.52 -4.77,-9.23 -7.17,-20.05 -7.17,-32.38l0 -45.33c0,-12.41 2.41,-23.23 7.17,-32.5 4.77,-9.23 11.48,-16.4 20.13,-21.52 8.61,-5.12 18.69,-7.68 30.21,-7.68 9.54,0 18.26,2.06 26.18,6.13 7.91,4.11 14.54,9.81 19.89,17.18 5.36,7.33 8.96,15.94 10.86,25.79l0 0 -23.77 0 0 0c-1.44,-5.31 -3.84,-9.93 -7.21,-13.92 -3.38,-4 -7.33,-7.06 -11.87,-9.27 -4.54,-2.17 -9.23,-3.3 -14.08,-3.3 -10.16,0 -18.31,3.61 -24.47,10.74 -6.2,7.17 -9.27,16.6 -9.27,28.35l0 45.33c0,11.75 3.06,21.18 9.27,28.31 6.17,7.1 14.31,10.67 24.47,10.67 7.17,0 13.96,-2.29 20.32,-6.82 6.36,-4.54 10.67,-11.09 12.84,-19.66l0 0 23.77 0 0 0c-1.9,9.85 -5.55,18.46 -10.94,25.79 -5.35,7.37 -11.98,13.07 -19.85,17.18 -7.87,4.07 -16.6,6.13 -26.14,6.13z"/>
  <path id="8" class="fil14" d="M2860.86 541.12c-11.67,0 -21.87,-2.52 -30.6,-7.56 -8.68,-5.04 -15.43,-12.14 -20.28,-21.29 -4.81,-9.19 -7.22,-19.85 -7.22,-32.03l0 -46.81c0,-12.29 2.41,-23 7.22,-32.11 4.85,-9.11 11.6,-16.21 20.28,-21.25 8.73,-5.04 18.92,-7.56 30.6,-7.56 11.64,0 21.83,2.52 30.56,7.56 8.69,5.04 15.47,12.14 20.28,21.25 4.81,9.12 7.21,19.82 7.21,32.11l0 46.81c0,12.17 -2.4,22.84 -7.21,32.03 -4.81,9.15 -11.6,16.25 -20.28,21.29 -8.73,5.04 -18.92,7.56 -30.56,7.56zm0 -22.84c10.36,0 18.66,-3.41 24.94,-10.24 6.24,-6.79 9.35,-15.82 9.35,-27.03l0 -48.4c0,-11.29 -3.1,-20.32 -9.35,-27.11 -6.28,-6.75 -14.58,-10.16 -24.94,-10.16 -10.31,0 -18.61,3.41 -24.9,10.16 -6.28,6.79 -9.42,15.83 -9.42,27.11l0 48.4c0,11.21 3.14,20.24 9.42,27.03 6.28,6.82 14.58,10.24 24.9,10.24z"/>
  <path id="9" class="fil14" d="M2954.09 539.41l0 -165.21 23.19 0 0 165.21 -23.19 0zm11.6 0l0 -22.03 94.55 0 0 22.03 -94.55 0z"/>
  <path id="10" class="fil14" d="M3087.46 539.41l0 -165.21 23.19 0 0 165.21 -23.19 0zm11.24 0l0 -22.03 94.9 0 0 22.03 -94.9 0zm0 -71l0 -22.03 82.37 0 0 22.03 -82.37 0zm0 -72.14l0 -22.07 94.9 0 0 22.07 -94.9 0z"/>
  <path id="11" class="fil14" d="M3282.22 450.45l57.24 0 0 28.85c0,12.45 -2.41,23.27 -7.22,32.58 -4.81,9.27 -11.52,16.45 -20.16,21.56 -8.61,5.12 -18.77,7.68 -30.44,7.68 -11.71,0 -21.99,-2.4 -30.79,-7.21 -8.76,-4.81 -15.59,-11.6 -20.43,-20.36 -4.85,-8.72 -7.29,-18.92 -7.29,-30.6l0 -48.75c0,-12.41 2.41,-23.23 7.22,-32.5 4.85,-9.23 11.55,-16.4 20.2,-21.52 8.61,-5.12 18.77,-7.68 30.44,-7.68 9.62,0 18.38,2.06 26.3,6.13 7.91,4.11 14.54,9.81 19.93,17.18 5.39,7.33 9,15.94 10.9,25.79l0 0 -25.09 0 0 0c-2.13,-8.57 -6.24,-15.12 -12.37,-19.66 -6.17,-4.54 -12.72,-6.83 -19.66,-6.83 -10.31,0 -18.57,3.61 -24.78,10.74 -6.21,7.17 -9.31,16.6 -9.31,28.35l0 48.75c0,10.74 3.18,19.35 9.54,25.83 6.36,6.47 14.77,9.73 25.21,9.73 10.31,0 18.57,-3.41 24.78,-10.24 6.2,-6.82 9.31,-16.33 9.31,-28.51l0 -7.17 -33.51 0 0 -22.14z"/>
  <polygon id="12" class="fil14" points="3397.86,374.21 3397.86,539.41 3374.67,539.41 3374.67,374.21 "/>
  <path id="13" class="fil14" d="M3493.41 541.12c-11.67,0 -21.87,-2.52 -30.6,-7.56 -8.68,-5.04 -15.43,-12.14 -20.28,-21.29 -4.81,-9.19 -7.22,-19.85 -7.22,-32.03l0 -46.81c0,-12.29 2.41,-23 7.22,-32.11 4.85,-9.11 11.6,-16.21 20.28,-21.25 8.73,-5.04 18.92,-7.56 30.6,-7.56 11.64,0 21.83,2.52 30.56,7.56 8.69,5.04 15.47,12.14 20.28,21.25 4.81,9.12 7.21,19.82 7.21,32.11l0 46.81c0,12.17 -2.4,22.84 -7.21,32.03 -4.81,9.15 -11.6,16.25 -20.28,21.29 -8.73,5.04 -18.92,7.56 -30.56,7.56zm0 -22.84c10.36,0 18.66,-3.41 24.94,-10.24 6.24,-6.79 9.35,-15.82 9.35,-27.03l0 -48.4c0,-11.29 -3.1,-20.32 -9.35,-27.11 -6.28,-6.75 -14.58,-10.16 -24.94,-10.16 -10.31,0 -18.61,3.41 -24.9,10.16 -6.28,6.79 -9.42,15.83 -9.42,27.11l0 48.4c0,11.21 3.14,20.24 9.42,27.03 6.28,6.82 14.58,10.24 24.9,10.24z"/>
  <path id="14" class="fil14" d="M1728.64 818.67l0 -22.03 37.38 0c12.18,0 21.64,-3.18 28.31,-9.5 6.71,-6.32 10.09,-15.24 10.09,-26.76l0 -48.63c0,-11.52 -3.38,-20.44 -10.09,-26.76 -6.67,-6.32 -16.13,-9.46 -28.31,-9.46l-37.38 0 0 -22.07 36.68 0c20.01,0 35.45,5.2 46.42,15.51 10.93,10.36 16.4,24.9 16.4,43.71l0 46.81c0,12.48 -2.44,23.15 -7.37,31.95 -4.93,8.84 -12.1,15.59 -21.49,20.25 -9.38,4.65 -20.74,6.98 -34.08,6.98l-36.57 0zm-15.71 0l0 -165.21 23.19 0 0 165.21 -23.19 0z"/>
  <path id="15" class="fil14" d="M1863.36 818.67l0 -165.21 23.19 0 0 165.21 -23.19 0zm11.24 0l0 -22.03 94.9 0 0 22.03 -94.9 0zm0 -71l0 -22.03 82.37 0 0 22.03 -82.37 0zm0 -72.14l0 -22.07 94.9 0 0 22.07 -94.9 0z"/>
  <path id="16" class="fil14" d="M2049 818.67l60.93 -165.21 19.74 0 60.93 165.21 -25.01 0 -45.8 -133.29 -45.76 133.29 -25.01 0zm28.08 -36.26l0 -22.03 86.91 0 0 22.03 -86.91 0z"/>
  <path id="17" class="fil14" d="M2229.21 818.67l0 -21.49 44.75 0c12.29,0 20.98,-2.32 26.1,-7.02 5.08,-4.69 7.64,-10.89 7.64,-18.53l0 -0.35c0,-8.18 -2.17,-14.7 -6.51,-19.59 -4.34,-4.89 -11.52,-7.33 -21.52,-7.33l-50.45 0 0 -20.9 50.45 0c8.53,0 15.01,-2.01 19.35,-6.08 4.38,-4.03 6.55,-9.97 6.55,-17.76l0 0c0,-8.26 -2.44,-14.43 -7.29,-18.54 -4.85,-4.07 -12.1,-6.13 -21.8,-6.13l-47.27 0 0 -21.49 51.46 0c16.29,0 28.39,4.07 36.38,12.18 7.95,8.1 11.91,18.96 11.91,32.61l0 0c0,8.22 -2.41,15.78 -7.25,22.65 -4.85,6.86 -12.49,11.24 -22.84,13.11 10.2,1.51 18.15,6.05 23.81,13.53 5.62,7.48 8.46,16.09 8.46,25.79l0 0.35c0,13.46 -4.34,24.35 -13.07,32.61 -8.72,8.26 -20.52,12.37 -35.45,12.37l-53.4 0zm-13.65 0l0 -165.21 23.07 0 0 165.21 -23.07 0z"/>
  <path id="18" class="fil14" d="M2417.02 820.38c-11.67,0 -21.87,-2.52 -30.6,-7.56 -8.68,-5.04 -15.43,-12.14 -20.28,-21.29 -4.81,-9.19 -7.22,-19.85 -7.22,-32.03l0 -46.81c0,-12.29 2.41,-23 7.22,-32.11 4.85,-9.11 11.6,-16.21 20.28,-21.25 8.73,-5.04 18.92,-7.56 30.6,-7.56 11.64,0 21.83,2.52 30.56,7.56 8.69,5.04 15.47,12.14 20.28,21.25 4.81,9.12 7.21,19.82 7.21,32.11l0 46.81c0,12.17 -2.4,22.84 -7.21,32.03 -4.81,9.15 -11.6,16.25 -20.28,21.29 -8.73,5.04 -18.92,7.56 -30.56,7.56zm0 -22.84c10.36,0 18.66,-3.41 24.94,-10.24 6.24,-6.79 9.35,-15.82 9.35,-27.03l0 -48.4c0,-11.29 -3.1,-20.32 -9.35,-27.11 -6.28,-6.75 -14.58,-10.16 -24.94,-10.16 -10.31,0 -18.61,3.41 -24.9,10.16 -6.28,6.79 -9.42,15.83 -9.42,27.11l0 48.4c0,11.21 3.14,20.24 9.42,27.03 6.28,6.82 14.58,10.24 24.9,10.24z"/>
  <path id="19" class="fil14" d="M2563.69 729.71l57.24 0 0 28.85c0,12.45 -2.41,23.27 -7.22,32.58 -4.81,9.27 -11.52,16.45 -20.16,21.56 -8.61,5.12 -18.77,7.68 -30.44,7.68 -11.71,0 -21.99,-2.4 -30.79,-7.21 -8.76,-4.81 -15.59,-11.6 -20.43,-20.36 -4.85,-8.72 -7.29,-18.92 -7.29,-30.6l0 -48.75c0,-12.41 2.41,-23.23 7.22,-32.5 4.85,-9.23 11.55,-16.4 20.2,-21.52 8.61,-5.12 18.77,-7.68 30.44,-7.68 9.62,0 18.38,2.06 26.3,6.13 7.91,4.11 14.54,9.81 19.93,17.18 5.39,7.33 9,15.94 10.9,25.79l0 0 -25.09 0 0 0c-2.13,-8.57 -6.24,-15.12 -12.37,-19.66 -6.17,-4.54 -12.72,-6.83 -19.66,-6.83 -10.31,0 -18.57,3.61 -24.78,10.74 -6.21,7.17 -9.31,16.6 -9.31,28.35l0 48.75c0,10.74 3.18,19.35 9.54,25.83 6.36,6.47 14.77,9.73 25.21,9.73 10.31,0 18.57,-3.41 24.78,-10.24 6.2,-6.82 9.31,-16.33 9.31,-28.51l0 -7.17 -33.51 0 0 -22.14z"/>
  <path id="20" class="fil14" d="M2635.71 818.67l60.93 -165.21 19.74 0 60.93 165.21 -25.01 0 -45.8 -133.29 -45.76 133.29 -25.01 0zm28.08 -36.26l0 -22.03 86.91 0 0 22.03 -86.91 0z"/>
  <path id="21" class="fil14" d="M2817.98 818.67l0 -22.03 37.38 0c12.18,0 21.64,-3.18 28.31,-9.5 6.71,-6.32 10.09,-15.24 10.09,-26.76l0 -48.63c0,-11.52 -3.38,-20.44 -10.09,-26.76 -6.67,-6.32 -16.13,-9.46 -28.31,-9.46l-37.38 0 0 -22.07 36.68 0c20.01,0 35.45,5.2 46.42,15.51 10.93,10.36 16.4,24.9 16.4,43.71l0 46.81c0,12.48 -2.44,23.15 -7.37,31.95 -4.93,8.84 -12.1,15.59 -21.49,20.25 -9.38,4.65 -20.74,6.98 -34.08,6.98l-36.57 0zm-15.71 0l0 -165.21 23.19 0 0 165.21 -23.19 0z"/>
  <path id="22" class="fil14" d="M3005.09 820.38c-11.67,0 -21.87,-2.52 -30.6,-7.56 -8.68,-5.04 -15.43,-12.14 -20.28,-21.29 -4.81,-9.19 -7.22,-19.85 -7.22,-32.03l0 -46.81c0,-12.29 2.41,-23 7.22,-32.11 4.85,-9.11 11.6,-16.21 20.28,-21.25 8.73,-5.04 18.92,-7.56 30.6,-7.56 11.64,0 21.83,2.52 30.56,7.56 8.69,5.04 15.47,12.14 20.28,21.25 4.81,9.12 7.21,19.82 7.21,32.11l0 46.81c0,12.17 -2.4,22.84 -7.21,32.03 -4.81,9.15 -11.6,16.25 -20.28,21.29 -8.73,5.04 -18.92,7.56 -30.56,7.56zm0 -22.84c10.36,0 18.66,-3.41 24.94,-10.24 6.24,-6.79 9.35,-15.82 9.35,-27.03l0 -48.4c0,-11.29 -3.1,-20.32 -9.35,-27.11 -6.28,-6.75 -14.58,-10.16 -24.94,-10.16 -10.31,0 -18.61,3.41 -24.9,10.16 -6.28,6.79 -9.42,15.83 -9.42,27.11l0 48.4c0,11.21 3.14,20.24 9.42,27.03 6.28,6.82 14.58,10.24 24.9,10.24z"/>
  <path id="23" class="fil14" d="M3145.75 820.38c-8.03,0 -15.59,-0.77 -22.69,-2.29 -7.06,-1.51 -13.69,-3.76 -19.89,-6.79 -6.17,-3.06 -11.95,-6.82 -17.3,-11.36l0 0 14.43 -17.73 0 0c6.29,5.43 13.22,9.54 20.79,12.26 7.56,2.71 15.78,4.07 24.66,4.07 11.94,0 21.21,-2.21 27.8,-6.67 6.6,-4.5 9.89,-10.74 9.89,-18.77l0 -0.12c0,-6.28 -1.67,-11.09 -5,-14.43 -3.34,-3.33 -7.68,-5.82 -13.11,-7.44 -5.43,-1.63 -11.32,-2.95 -17.8,-4.03 -6.2,-1.05 -12.45,-2.29 -18.77,-3.72 -6.32,-1.44 -12.14,-3.72 -17.45,-6.79 -5.31,-3.06 -9.58,-7.48 -12.8,-13.22 -3.22,-5.74 -4.81,-13.46 -4.81,-23.07l0 -0.12c0,-15.36 5.12,-27.26 15.32,-35.72 10.24,-8.46 24.66,-12.68 43.31,-12.68 8.84,0 17.53,1.44 25.99,4.27 8.49,2.83 16.75,7.17 24.78,13.03l0 0 -13.18 18.38 0 0c-6.29,-4.69 -12.53,-8.18 -18.81,-10.43 -6.24,-2.29 -12.49,-3.41 -18.77,-3.41 -11.29,0 -20.09,2.25 -26.33,6.75 -6.24,4.5 -9.34,10.9 -9.34,19.16l0 0.12c0,6.2 1.78,10.93 5.43,14.19 3.65,3.26 8.41,5.66 14.27,7.21 5.86,1.55 12.17,3.03 18.92,4.38 6.05,1.2 12.1,2.68 18.15,4.38 6.08,1.67 11.6,4.15 16.56,7.37 4.96,3.22 8.92,7.64 11.91,13.22 2.99,5.62 4.5,12.91 4.5,21.95l0 0.23c0,15.2 -5.31,26.99 -15.9,35.33 -10.62,8.34 -25.52,12.48 -44.75,12.48z"/>
  <path id="24" class="fil14" d="M1728.64 1097.93l0 -22.03 37.38 0c12.18,0 21.64,-3.18 28.31,-9.5 6.71,-6.32 10.09,-15.24 10.09,-26.76l0 -48.63c0,-11.52 -3.38,-20.44 -10.09,-26.76 -6.67,-6.32 -16.13,-9.46 -28.31,-9.46l-37.38 0 0 -22.07 36.68 0c20.01,0 35.45,5.2 46.42,15.51 10.93,10.36 16.4,24.9 16.4,43.71l0 46.81c0,12.48 -2.44,23.15 -7.37,31.95 -4.93,8.84 -12.1,15.59 -21.49,20.25 -9.38,4.65 -20.74,6.98 -34.08,6.98l-36.57 0zm-15.71 0l0 -165.21 23.19 0 0 165.21 -23.19 0z"/>
  <path id="25" class="fil14" d="M1863.36 1097.93l0 -165.21 23.19 0 0 165.21 -23.19 0zm11.24 0l0 -22.03 94.9 0 0 22.03 -94.9 0zm0 -71l0 -22.03 82.37 0 0 22.03 -82.37 0zm0 -72.14l0 -22.07 94.9 0 0 22.07 -94.9 0z"/>
  <path id="26" class="fil14" d="M2002.42 1097.93l0 -165.21 23.19 0 0 165.21 -23.19 0zm11.6 0l0 -22.03 94.55 0 0 22.03 -94.55 0z"/>
  <path id="27" class="fil14" d="M2252.37 1099.63c-11.52,0 -21.6,-2.56 -30.21,-7.68 -8.65,-5.12 -15.36,-12.29 -20.13,-21.52 -4.77,-9.23 -7.17,-20.05 -7.17,-32.38l0 -45.33c0,-12.41 2.41,-23.23 7.17,-32.5 4.77,-9.23 11.48,-16.4 20.13,-21.52 8.61,-5.12 18.69,-7.68 30.21,-7.68 9.54,0 18.26,2.06 26.18,6.13 7.91,4.11 14.54,9.81 19.89,17.18 5.36,7.33 8.96,15.94 10.86,25.79l0 0 -23.77 0 0 0c-1.44,-5.31 -3.84,-9.93 -7.21,-13.92 -3.38,-4 -7.33,-7.06 -11.87,-9.27 -4.54,-2.17 -9.23,-3.3 -14.08,-3.3 -10.16,0 -18.31,3.61 -24.47,10.74 -6.2,7.17 -9.27,16.6 -9.27,28.35l0 45.33c0,11.75 3.06,21.18 9.27,28.31 6.17,7.1 14.31,10.67 24.47,10.67 7.17,0 13.96,-2.29 20.32,-6.82 6.36,-4.54 10.67,-11.09 12.84,-19.66l0 0 23.77 0 0 0c-1.9,9.85 -5.55,18.46 -10.94,25.79 -5.35,7.37 -11.98,13.07 -19.85,17.18 -7.87,4.07 -16.6,6.13 -26.14,6.13z"/>
  <path id="28" class="fil14" d="M2393.38 1099.63c-18.42,0 -32.65,-5.35 -42.78,-16.09 -10.12,-10.7 -15.16,-25.83 -15.16,-45.37l0 -105.45 23.15 0 0 106.22c0,12.06 3.06,21.37 9.11,27.96 6.05,6.6 14.62,9.89 25.68,9.89 11.13,0 19.74,-3.3 25.83,-9.89 6.13,-6.59 9.15,-15.9 9.15,-27.96l0 -106.22 23.19 0 0 105.45c0,19.54 -5.08,34.67 -15.24,45.37 -10.12,10.74 -24.47,16.09 -42.93,16.09z"/>
  <path id="29" class="fil14" d="M2535.27 1099.63c-8.03,0 -15.59,-0.77 -22.69,-2.29 -7.06,-1.51 -13.69,-3.76 -19.89,-6.79 -6.17,-3.06 -11.95,-6.82 -17.3,-11.36l0 0 14.43 -17.73 0 0c6.29,5.43 13.22,9.54 20.79,12.26 7.56,2.71 15.78,4.07 24.66,4.07 11.94,0 21.21,-2.21 27.8,-6.67 6.6,-4.5 9.89,-10.74 9.89,-18.77l0 -0.12c0,-6.28 -1.67,-11.09 -5,-14.43 -3.34,-3.33 -7.68,-5.82 -13.11,-7.44 -5.43,-1.63 -11.32,-2.95 -17.8,-4.03 -6.2,-1.05 -12.45,-2.29 -18.77,-3.72 -6.32,-1.44 -12.14,-3.72 -17.45,-6.79 -5.31,-3.06 -9.58,-7.48 -12.8,-13.22 -3.22,-5.74 -4.81,-13.46 -4.81,-23.07l0 -0.12c0,-15.36 5.12,-27.26 15.32,-35.72 10.24,-8.46 24.66,-12.68 43.31,-12.68 8.84,0 17.53,1.44 25.99,4.27 8.49,2.83 16.75,7.17 24.78,13.03l0 0 -13.18 18.38 0 0c-6.29,-4.69 -12.53,-8.18 -18.81,-10.43 -6.24,-2.29 -12.49,-3.41 -18.77,-3.41 -11.29,0 -20.09,2.25 -26.33,6.75 -6.24,4.5 -9.34,10.9 -9.34,19.16l0 0.12c0,6.2 1.78,10.93 5.43,14.19 3.65,3.26 8.41,5.66 14.27,7.21 5.86,1.55 12.17,3.03 18.92,4.38 6.05,1.2 12.1,2.68 18.15,4.38 6.08,1.67 11.6,4.15 16.56,7.37 4.96,3.22 8.92,7.64 11.91,13.22 2.99,5.62 4.5,12.91 4.5,21.95l0 0.23c0,15.2 -5.31,26.99 -15.9,35.33 -10.62,8.34 -25.52,12.48 -44.75,12.48z"/>
  <path id="30" class="fil14" d="M2678.41 1099.63c-11.52,0 -21.6,-2.56 -30.21,-7.68 -8.65,-5.12 -15.36,-12.29 -20.13,-21.52 -4.77,-9.23 -7.17,-20.05 -7.17,-32.38l0 -45.33c0,-12.41 2.41,-23.23 7.17,-32.5 4.77,-9.23 11.48,-16.4 20.13,-21.52 8.61,-5.12 18.69,-7.68 30.21,-7.68 9.54,0 18.26,2.06 26.18,6.13 7.91,4.11 14.54,9.81 19.89,17.18 5.36,7.33 8.96,15.94 10.86,25.79l0 0 -23.77 0 0 0c-1.44,-5.31 -3.84,-9.93 -7.21,-13.92 -3.38,-4 -7.33,-7.06 -11.87,-9.27 -4.54,-2.17 -9.23,-3.3 -14.08,-3.3 -10.16,0 -18.31,3.61 -24.47,10.74 -6.2,7.17 -9.27,16.6 -9.27,28.35l0 45.33c0,11.75 3.06,21.18 9.27,28.31 6.17,7.1 14.31,10.67 24.47,10.67 7.17,0 13.96,-2.29 20.32,-6.82 6.36,-4.54 10.67,-11.09 12.84,-19.66l0 0 23.77 0 0 0c-1.9,9.85 -5.55,18.46 -10.94,25.79 -5.35,7.37 -11.98,13.07 -19.85,17.18 -7.87,4.07 -16.6,6.13 -26.14,6.13z"/>
  <path id="31" class="fil14" d="M2818.41 1099.63c-11.67,0 -21.87,-2.52 -30.6,-7.56 -8.68,-5.04 -15.43,-12.14 -20.28,-21.29 -4.81,-9.19 -7.22,-19.85 -7.22,-32.03l0 -46.81c0,-12.29 2.41,-23 7.22,-32.11 4.85,-9.11 11.6,-16.21 20.28,-21.25 8.73,-5.04 18.92,-7.56 30.6,-7.56 11.64,0 21.83,2.52 30.56,7.56 8.69,5.04 15.47,12.14 20.28,21.25 4.81,9.12 7.21,19.82 7.21,32.11l0 46.81c0,12.17 -2.4,22.84 -7.21,32.03 -4.81,9.15 -11.6,16.25 -20.28,21.29 -8.73,5.04 -18.92,7.56 -30.56,7.56zm0 -22.84c10.36,0 18.66,-3.41 24.94,-10.24 6.24,-6.79 9.35,-15.82 9.35,-27.03l0 -48.4c0,-11.29 -3.1,-20.32 -9.35,-27.11 -6.28,-6.75 -14.58,-10.16 -24.94,-10.16 -10.31,0 -18.61,3.41 -24.9,10.16 -6.28,6.79 -9.42,15.83 -9.42,27.11l0 48.4c0,11.21 3.14,20.24 9.42,27.03 6.28,6.82 14.58,10.24 24.9,10.24z"/>
  <rect class="fil15" x="1557.18" y="188.98" width="28.19" height="1094.18"/>
 </g>
</svg>
